<svg width="575" height="728" viewBox="0 0 575 728" fill="none" xmlns="http://www.w3.org/2000/svg">
<path d="M531.967 624.814H464.126C459.64 624.814 456 628.454 456 632.94V676.672C456 681.157 459.64 684.798 464.126 684.798H484.325L490.705 695.84L498.051 708.572L505.397 695.84L511.777 684.798H531.976C536.462 684.798 540.102 681.157 540.102 676.672V632.94C540.102 628.454 536.462 624.814 531.976 624.814H531.967Z" fill="#FCB32B"/>
<path d="M492.627 674.331C498.506 675.056 504.468 675.093 510.356 674.433C511.777 674.276 513.235 674.062 514.442 673.31C515.65 672.557 516.541 671.248 516.235 669.855C517.303 669.846 518.185 669.038 518.937 668.286C519.244 667.979 519.569 667.663 519.754 667.264C519.977 666.809 520.014 666.289 519.987 665.778C519.903 664.181 519.16 662.704 517.767 661.915C519.039 661.534 520.098 660.494 520.479 659.222C520.86 657.949 520.562 656.491 519.717 655.479C519.151 654.801 518.473 654.476 517.656 654.142C518.231 653.622 519.039 653.371 519.494 652.739C520.126 651.866 519.782 650.557 518.984 649.823C518.185 649.099 517.07 648.839 516.002 648.737C514.043 648.56 512.074 648.82 510.115 648.895C508.155 648.969 506.028 648.607 504.282 647.696C503.902 645.105 504.524 642.403 503.827 639.877C502.973 636.775 500.01 634.379 496.807 634.193C496.194 634.156 495.506 634.231 495.107 634.704C494.819 635.057 494.763 635.54 494.763 635.986C494.754 638.075 495.543 640.081 496.017 642.115C496.5 644.149 496.621 646.461 495.432 648.179C494.968 648.848 494.327 649.396 493.946 650.12C493.426 651.114 493.473 652.312 493.194 653.408C492.925 654.504 492.07 655.646 490.947 655.535L492.609 674.331H492.627Z" fill="white"/>
<path d="M491.68 650.093H484.65C484.106 650.093 483.666 650.533 483.666 651.077V675.548C483.666 676.092 484.106 676.532 484.65 676.532H491.68C492.224 676.532 492.665 676.092 492.665 675.548V651.077C492.665 650.533 492.224 650.093 491.68 650.093Z" fill="white"/>
<path d="M489.033 653.38C489.033 653.984 488.541 654.476 487.938 654.476C487.334 654.476 486.842 653.984 486.842 653.38C486.842 652.776 487.334 652.284 487.938 652.284C488.541 652.284 489.033 652.776 489.033 653.38Z" fill="white"/>
<path d="M170.357 409.261C174.522 409.774 178.747 409.8 182.919 409.333C183.926 409.221 184.959 409.07 185.815 408.537C186.67 408.004 187.302 407.076 187.085 406.089C187.841 406.082 188.46 405.51 189 404.977C189.217 404.76 189.447 404.536 189.579 404.253C189.737 403.93 189.763 403.562 189.743 403.2C189.684 402.068 189.157 401.022 188.17 400.462C189.072 400.193 189.822 399.456 190.092 398.554C190.362 397.653 190.151 396.619 189.552 395.902C189.151 395.422 188.67 395.185 188.091 394.955C188.499 394.586 189.072 394.408 189.394 393.961C189.842 393.342 189.598 392.414 189.032 391.895C188.466 391.381 187.677 391.197 186.92 391.125C185.532 391 184.136 391.184 182.748 391.237C181.359 391.289 179.853 391.033 178.615 390.388C178.346 388.552 178.786 386.637 178.293 384.847C177.688 382.649 175.588 380.951 173.318 380.82C172.884 380.793 172.397 380.846 172.114 381.181C171.91 381.431 171.87 381.774 171.87 382.09C171.864 383.57 172.423 384.992 172.759 386.433C173.101 387.874 173.186 389.512 172.344 390.73C172.015 391.204 171.561 391.592 171.291 392.105C170.923 392.809 170.956 393.658 170.758 394.435C170.561 395.211 169.962 396.021 169.166 395.942L170.344 409.261H170.357Z" fill="white"/>
<path d="M169.679 392.079H164.698C164.312 392.079 164 392.391 164 392.776V410.116C164 410.501 164.312 410.814 164.698 410.814H169.679C170.064 410.814 170.377 410.501 170.377 410.116V392.776C170.377 392.391 170.064 392.079 169.679 392.079Z" fill="white"/>
<path d="M167.027 395.191C167.456 395.191 167.804 394.844 167.804 394.415C167.804 393.986 167.456 393.638 167.027 393.638C166.598 393.638 166.251 393.986 166.251 394.415C166.251 394.844 166.598 395.191 167.027 395.191Z" fill="white"/>
<g opacity="0.06">
<path d="M276.394 727.528C437.327 727.528 567.788 714.629 567.788 698.718C567.788 682.806 437.327 669.908 276.394 669.908C115.462 669.908 -15 682.806 -15 698.718C-15 714.629 115.462 727.528 276.394 727.528Z" fill="black"/>
</g>
<path d="M113.046 655.922C116.486 659.362 120.216 662.641 124.27 665.741C144.521 681.293 172.523 692.436 209.715 696.166C399.902 715.206 462.755 625.982 478.113 488.715C484.96 427.542 468.94 387.169 449.076 361.218C446.993 358.505 444.878 355.953 442.746 353.547C441.535 352.19 440.307 350.866 439.032 349.574C413.387 323.38 376.357 311.042 339.973 317.034C311.373 321.733 285.389 337.01 264.315 367.548C230.595 416.367 262.49 458.338 166.144 461.148C92.3915 463.296 45.656 588.694 113.062 655.939L113.046 655.922Z" fill="#FBB416"/>
<path d="M404.214 359.506C404.214 359.506 426.71 407.63 400.742 495.966C374.775 584.301 340.377 577.341 318.156 577.341C279.333 577.341 200.72 540.779 185.362 511.969C170.004 483.159 198.992 481.448 253.269 477.184C307.562 472.921 348.064 340.45 404.214 359.506Z" fill="#F8A81B"/>
<path d="M355.444 614.403C355.864 614.403 356.3 614.242 356.623 613.903C357.237 613.257 357.22 612.239 356.558 611.609C337.147 593.151 318.608 582.283 306.464 576.404C293.27 570.025 284.759 568.039 284.404 567.958C283.532 567.765 282.66 568.298 282.466 569.17C282.272 570.042 282.805 570.914 283.677 571.107C284.065 571.204 317.865 579.279 354.314 613.951C354.62 614.242 355.024 614.403 355.428 614.403H355.444Z" fill="#F8A81B"/>
<path d="M349.033 592.78C349.55 592.78 350.066 592.537 350.373 592.069C350.874 591.326 350.68 590.325 349.937 589.824C349.178 589.307 331.107 577.325 303.137 574.273C302.249 574.176 301.458 574.822 301.361 575.71C301.264 576.598 301.91 577.389 302.798 577.486C329.977 580.458 347.967 592.376 348.145 592.505C348.419 592.699 348.742 592.78 349.049 592.78H349.033Z" fill="#F8A81B"/>
<path d="M407.686 459.13C408.494 459.13 409.188 458.532 409.285 457.708C411.627 438.992 419.685 424.684 426.016 415.979C432.911 406.516 439.339 401.429 439.403 401.38C440.098 400.831 440.227 399.814 439.678 399.103C439.129 398.393 438.111 398.28 437.401 398.829C437.126 399.039 430.618 404.19 423.464 413.977C416.875 423.004 408.51 437.845 406.055 457.305C405.942 458.193 406.572 459 407.46 459.113C407.525 459.113 407.589 459.113 407.67 459.113L407.686 459.13Z" fill="#F8A81B"/>
<path d="M113.046 655.922C116.486 659.362 120.216 662.641 124.27 665.741C147.67 679.791 176.238 689.044 207.696 692.662C217.45 693.792 227.301 694.341 237.152 694.341C264.315 694.341 291.542 690.11 317.203 681.793C383.963 660.17 432.136 613.903 452.839 551.535C464.192 517.331 469.763 484.08 469.408 452.686C469.134 427.542 465.048 403.528 457.313 381.307C454.729 373.895 451.919 367.209 449.076 361.218C446.993 358.505 444.878 355.953 442.746 353.547C441.535 352.19 440.308 350.866 439.032 349.574C444.103 358.262 449.529 369.292 454.163 382.615C466.098 416.964 474.996 473.971 449.609 550.453C429.262 611.771 381.864 657.263 316.169 678.547C246.373 701.156 165.644 691.983 115.291 655.745C114.596 655.244 113.66 655.341 113.078 655.939L113.046 655.922Z" fill="#F8A81B"/>
<path d="M391.941 303.921C391.941 303.921 418.199 277.081 379.958 258.17C341.701 239.26 296.645 268.15 289.265 289.225C281.869 310.3 391.957 303.921 391.957 303.921H391.941Z" fill="#5C4DA0"/>
<path d="M346.255 285.511C346.481 285.511 346.724 285.43 346.917 285.269C357.35 276.338 374.839 277.162 375.017 277.162H375.065C375.598 277.162 376.05 276.742 376.066 276.209C376.099 275.644 375.663 275.175 375.114 275.143C374.371 275.095 356.639 274.271 345.593 283.734C345.173 284.09 345.125 284.736 345.48 285.155C345.674 285.382 345.964 285.511 346.255 285.511Z" fill="#4A429A"/>
<path d="M371.9 286.787C372.255 286.787 372.611 286.593 372.788 286.254C373.047 285.753 372.869 285.155 372.368 284.881C371.852 284.606 359.756 278.244 351.181 280.246C350.632 280.375 350.292 280.908 350.422 281.457C350.551 282.006 351.084 282.346 351.633 282.216C359.481 280.391 371.302 286.609 371.415 286.673C371.561 286.754 371.722 286.787 371.884 286.787H371.9Z" fill="#4A429A"/>
<path d="M107.281 639.79L93.8126 664.611C93.8126 664.611 77.2598 668.503 57.5579 670.021C27.6336 672.314 18.7677 667.598 16.6522 674.284C15.005 679.5 37.7591 691.273 48.2883 693.13C58.8175 694.987 81.8138 704.418 96.7517 706.082C111.673 707.729 118.262 688.883 121.654 682.181C125.029 675.463 135.671 652.741 135.671 652.741L107.297 639.79H107.281Z" fill="#F79A86"/>
<path d="M28.3926 680.841C28.328 682.714 28.6671 684.49 29.6522 685.928C29.8137 686.154 29.9752 686.364 30.169 686.573C35.4659 692.419 56.6858 695.262 56.6858 695.262C54.9902 693.631 54.1827 691.337 53.9405 688.77C53.2784 682.019 56.492 673.364 57.8808 669.988C58.2684 669.068 58.5106 668.551 58.5106 668.551C54.8448 667.695 51.3566 667.211 48.2075 666.985C45.1069 666.759 42.3293 666.759 40.0361 666.855C35.7081 667.049 33.0597 667.582 33.0597 667.582C33.0597 667.582 32.3168 668.777 31.4286 670.618C30.1367 673.267 28.5379 677.239 28.4087 680.841H28.3926Z" fill="#5C4DA0"/>
<path d="M37.42 676.739L44.7678 677.498C44.7678 677.498 45.7367 673.913 46.8349 670.618C47.2871 669.278 47.7715 667.97 48.2076 667.001C45.1069 666.775 42.3293 666.775 40.0361 666.872C39.6001 667.841 39.0833 669.213 38.6311 670.731C38.0498 672.653 37.5492 674.817 37.4361 676.739H37.42Z" fill="#4A429A"/>
<path d="M19.2522 677.95C19.2522 677.95 87.789 699.654 97.0101 701.253C106.215 702.868 111.237 701.059 111.237 701.059C111.237 701.059 110.947 704.822 110.172 708.359C109.267 712.525 104.939 714.98 100.87 713.72C82.5405 708.052 21.933 689.125 17.7988 685.766C12.9218 681.81 13.9876 677.595 19.2522 677.95Z" fill="#5C4DA0"/>
<path d="M170.44 634.089L171.328 656.391C171.328 656.391 159.087 668.212 142.938 679.581C118.391 696.86 108.363 697.345 109.962 704.16C111.205 709.473 136.801 707.971 146.782 704.176C156.778 700.397 181.373 696.731 195.051 690.53C208.73 684.313 204.741 664.756 204.224 657.263C203.691 649.77 202.577 632.878 202.577 632.878L170.44 634.089Z" fill="#F79A86"/>
<path d="M123.398 703.788C124.302 705.436 125.497 706.792 127.096 707.519C127.338 707.632 127.597 707.729 127.871 707.81C135.413 710.135 155.098 701.721 155.098 701.721C152.821 701.188 150.948 699.638 149.414 697.555C145.393 692.096 143.729 683.021 143.213 679.403C143.067 678.418 143.019 677.837 143.019 677.837C139.418 678.983 136.188 680.356 133.362 681.761C130.584 683.15 128.194 684.571 126.272 685.831C122.655 688.205 120.652 690.013 120.652 690.013C120.652 690.013 120.62 691.418 120.798 693.453C121.04 696.392 121.702 700.623 123.43 703.788H123.398Z" fill="#5C4DA0"/>
<path d="M129.05 695.649L135.752 692.549C135.752 692.549 134.751 688.964 134.008 685.572C133.701 684.183 133.459 682.827 133.329 681.761C130.552 683.15 128.162 684.571 126.24 685.831C126.369 686.88 126.611 688.334 126.999 689.868C127.483 691.822 128.162 693.937 129.05 695.649Z" fill="#4A429A"/>
<path d="M114.047 705.985C114.047 705.985 184.054 689.577 192.79 686.251C201.527 682.924 204.918 678.806 204.918 678.806C204.918 678.806 206.598 682.197 207.744 685.621C209.085 689.658 206.63 693.986 202.496 694.987C183.844 699.493 122.073 714.221 116.809 713.446C110.591 712.541 109.348 708.375 114.064 705.969L114.047 705.985Z" fill="#5C4DA0"/>
<path d="M146.62 456.933C164.384 443.271 228.189 448.891 278.171 455.964C279.592 478.605 272.615 459.808 276.83 482.077C214.43 485.275 196.892 490.2 196.892 490.2C196.892 490.2 206.226 540.989 205.774 562.225C205.322 583.461 212.848 644.909 212.848 644.909L167.856 653.387C167.856 653.387 121.185 476.49 146.62 456.933Z" fill="white"/>
<path d="M165.579 643.504C165.773 643.569 165.983 643.585 166.193 643.536L210.619 634.46C211.281 634.331 211.701 633.685 211.572 633.023C211.443 632.361 210.797 631.941 210.135 632.07L165.708 641.146C165.046 641.275 164.626 641.921 164.756 642.583C164.852 643.019 165.159 643.359 165.563 643.488L165.579 643.504Z" fill="#D8D8D8"/>
<path d="M202.076 634.864C202.27 634.929 202.496 634.945 202.706 634.896C203.368 634.751 203.772 634.105 203.643 633.459C203.594 633.233 198.846 610.786 198.572 574.499C198.297 537.953 187.09 483.515 186.977 482.982C186.848 482.32 186.202 481.9 185.539 482.045C184.877 482.174 184.457 482.82 184.603 483.483C184.716 484.032 195.875 538.228 196.133 574.531C196.408 611.076 201.204 633.75 201.252 633.976C201.349 634.412 201.656 634.735 202.06 634.864H202.076Z" fill="#D8D8D8"/>
<path d="M200.347 252.145C202.646 251.378 204.118 247.469 206.239 245.07C209.023 241.915 212.219 236.34 213.195 232.7C214.663 227.265 218.1 210.997 215.59 207.038C213.067 203.087 209.026 216.888 208.131 219.699C207.236 222.509 205.595 224.091 205.595 224.091C205.595 224.091 212.449 191.715 210.097 188.803C207.744 185.891 202.012 203.932 200.615 208.393C200.615 208.393 204.415 183.71 202.35 182.329C198.197 179.561 193.179 206.849 193.179 206.849C193.179 206.849 195.323 185.92 191.879 185.671C188.216 185.399 185.988 207.831 185.988 207.831C185.988 207.831 185.396 193.982 182.531 192.411C179.657 190.825 178.659 220.006 179.038 224.505C179.417 229.005 179.463 241.229 180.957 246.949C181.971 250.839 193.097 254.541 200.353 252.123L200.347 252.145Z" fill="#F79A86"/>
<path d="M182.725 215.291C182.632 214.841 182.873 214.385 183.319 214.221C193.744 210.476 203.324 215.798 203.722 216.035C204.164 216.283 204.329 216.859 204.08 217.301C203.832 217.743 203.256 217.908 202.814 217.659C202.723 217.599 193.557 212.542 183.946 215.984C183.464 216.151 182.928 215.901 182.761 215.419C182.745 215.391 182.735 215.341 182.733 215.305L182.725 215.291Z" fill="#F3796B"/>
<path d="M188.064 238.072C187.984 237.708 188.121 237.331 188.44 237.109C197.562 230.817 195.958 222.289 195.938 222.189C195.835 221.688 196.167 221.198 196.668 221.096C197.168 220.993 197.65 221.312 197.767 221.804C197.857 222.218 199.631 231.655 189.523 238.628C189.099 238.929 188.528 238.811 188.228 238.388C188.163 238.276 188.107 238.178 188.078 238.064L188.064 238.072Z" fill="#F3796B"/>
<path d="M286.61 291.42L286.68 291.379L286.672 291.365L286.001 291.753L285.052 292.338C284.381 292.725 283.695 293.121 282.996 293.525C281.589 294.318 280.133 295.122 278.644 295.87C275.66 297.387 272.616 298.865 269.497 300.181C267.937 300.839 266.378 301.497 264.794 302.113C263.211 302.729 261.625 303.309 260.045 303.867C258.451 304.433 256.839 304.935 255.226 305.437C253.614 305.939 252 306.404 250.383 306.834C237.417 310.311 224.133 311.752 211.061 310.815C210.247 310.763 209.426 310.696 208.61 310.608C207.788 310.541 206.987 310.445 206.163 310.342L205.544 310.271C205.798 310.292 206.063 310.363 206.356 310.417C206.913 310.543 207.531 310.709 208.123 310.926C208.723 311.158 209.303 311.42 209.835 311.728C210.359 312.022 210.827 312.349 211.229 312.657C212.033 313.275 212.538 313.859 212.821 314.219C213.111 314.592 213.202 314.782 213.196 314.804C213.184 314.848 212.875 314.28 212.591 313.4C212.292 312.528 211.991 311.36 211.71 310.067C211.444 308.766 211.191 307.327 210.998 305.798C210.584 302.755 210.355 299.419 210.185 295.992C209.902 289.107 210.016 281.843 210.322 274.525C210.464 270.863 210.676 267.16 210.918 263.477C211.024 261.626 211.152 259.781 211.302 257.941L211.705 252.599L175.961 245.563L175.568 247.208L175.218 248.733L174.546 251.769C174.125 253.784 173.739 255.797 173.361 257.824C172.62 261.869 171.973 265.916 171.403 270.031C170.289 278.245 169.509 286.583 169.37 295.353C169.293 299.742 169.412 304.242 169.805 308.994C170.02 311.368 170.32 313.825 170.734 316.383C171.17 318.947 171.729 321.627 172.597 324.519C173.465 327.412 174.601 330.541 176.505 334.066C177.456 335.811 178.646 337.678 180.165 339.599C181.676 341.505 183.606 343.523 185.988 345.356C187.172 346.276 188.498 347.151 189.883 347.936C191.283 348.713 192.772 349.42 194.297 349.994C195.814 350.554 197.391 351.024 198.928 351.329C199.698 351.5 200.464 351.599 201.201 351.714L202.061 351.814C203.206 351.955 204.364 352.088 205.514 352.207C206.665 352.326 207.821 352.423 208.977 352.52C211.281 352.7 213.589 352.822 215.909 352.9C218.213 352.95 220.523 352.978 222.82 352.919C225.125 352.875 227.412 352.767 229.697 352.622C231.988 352.456 234.262 352.262 236.525 351.981C245.6 350.937 254.471 349.023 263.047 346.403C267.323 345.09 271.531 343.593 275.642 341.928C279.745 340.249 283.797 338.45 287.734 336.42C289.706 335.411 291.655 334.361 293.587 333.283C295.519 332.204 297.419 331.07 299.301 329.872C301.19 328.688 303.056 327.462 304.909 326.149C305.831 325.486 306.768 324.815 307.702 324.108C308.173 323.761 308.65 323.393 309.141 323.016L310.86 321.632L286.638 291.403L286.61 291.42Z" fill="#5C4DA0"/>
<path d="M190.62 334.42C190.967 334.891 191.635 335.047 192.174 334.754C200.323 330.329 207.824 322.94 208.131 322.632C208.609 322.169 208.606 321.388 208.143 320.91C207.68 320.431 206.899 320.434 206.42 320.897C206.353 320.974 198.844 328.348 190.997 332.618C190.415 332.935 190.192 333.679 190.509 334.26C190.542 334.316 190.566 334.358 190.598 334.414L190.62 334.42Z" fill="#4A429A"/>
<path d="M202.175 334.182C202.316 334.362 202.491 334.504 202.706 334.585C203.328 334.822 204.025 334.513 204.277 333.883C204.416 333.542 207.49 325.463 207.938 322.557C208.043 321.9 207.594 321.283 206.928 321.163C206.271 321.058 205.654 321.508 205.535 322.173C205.108 324.825 202.035 332.939 201.99 333.022C201.833 333.429 201.909 333.851 202.153 334.177L202.175 334.182Z" fill="#4A429A"/>
<path d="M177.343 253.641C177.5 253.849 177.755 254 178.038 254.005C188.785 254.177 208.428 258.034 208.618 258.073C209.102 258.167 209.589 257.849 209.697 257.357C209.805 256.866 209.486 256.379 209.003 256.285C208.813 256.246 189.009 252.37 178.102 252.178C177.595 252.172 177.178 252.581 177.164 253.073C177.155 253.284 177.218 253.49 177.343 253.641Z" fill="#4A429A"/>
<path d="M268.966 301.305C265.784 310.962 271.065 334.443 265.946 375.736C265.574 378.772 265.138 381.905 264.638 385.151C264.169 388.187 263.653 391.336 263.071 394.582C262.522 397.602 261.925 400.718 261.279 403.9C260.697 406.694 260.084 409.568 259.405 412.491C258.711 415.511 257.984 418.579 257.193 421.728C256.967 422.617 256.725 423.586 256.466 424.587C256.402 424.845 256.337 425.087 256.272 425.346C256.208 425.572 256.159 425.798 256.095 426.04C256.046 426.218 256.014 426.395 255.966 426.557L255.869 426.945C255.804 427.171 255.756 427.413 255.691 427.639C255.691 427.687 255.675 427.736 255.659 427.768C255.594 428.043 255.513 428.333 255.433 428.624C255.433 428.672 255.417 428.705 255.4 428.753C255.336 428.995 255.271 429.254 255.207 429.496C254.9 430.659 254.577 431.886 254.254 433.146C254.173 433.453 254.092 433.776 253.995 434.099C253.882 434.518 253.769 434.954 253.656 435.391C253.43 436.246 253.188 437.102 252.962 437.991C252.849 438.427 252.72 438.879 252.607 439.315C252.348 440.268 252.09 441.22 251.815 442.205C251.767 442.383 251.718 442.561 251.67 442.738C251.04 445.064 250.362 447.454 249.684 449.909C249.377 451.007 249.054 452.137 248.747 453.251C248.359 454.608 247.972 455.981 247.584 457.353C247.003 459.372 246.422 461.391 245.824 463.409L245.065 465.977C244.839 466.752 244.597 467.527 244.371 468.302C244.096 469.223 243.822 470.159 243.547 471.08C243.369 471.694 243.176 472.307 242.982 472.921C242.869 473.309 242.756 473.68 242.643 474.068C242.417 474.827 242.174 475.586 241.948 476.345C241.722 477.104 241.48 477.846 241.254 478.589C241.092 479.122 240.931 479.639 240.769 480.156C240.624 480.624 240.479 481.076 240.333 481.528C240.285 481.658 240.253 481.771 240.22 481.9C240.14 482.158 240.059 482.433 239.962 482.691C239.784 483.224 239.623 483.773 239.445 484.29C239.251 484.904 239.041 485.533 238.848 486.147C237.249 491.056 235.682 495.627 234.213 499.583C245.13 512.131 263.669 523.096 285.47 529.669L297.566 521.804L307.691 534.643C328.992 537.76 351.81 536.532 372.837 528.878C379.781 514.683 391.23 462.602 394.476 447.034C395.122 443.933 395.704 440.817 396.237 437.7C398.82 422.697 400.193 407.469 401.114 391.465C401.162 390.593 401.211 389.721 401.259 388.849C401.259 388.752 401.259 388.639 401.275 388.542C402.26 375.057 419.879 335.331 418.103 321.039C414.582 292.713 396.527 300.174 380.249 295.798C374.904 294.36 370.414 292.552 366.732 290.695C365.198 289.919 363.809 289.144 362.55 288.385C362.017 288.078 361.532 287.772 361.064 287.449C356.009 284.17 353.248 281.409 353.248 281.409L316.315 277.549C312.665 281.845 308.353 284.348 303.815 285.963C303.315 286.141 302.814 286.302 302.297 286.464C301.538 286.706 300.779 286.916 300.02 287.11C286.972 290.501 273.164 288.644 268.982 301.305H268.966Z" fill="#5C4DA0"/>
<path d="M361.661 500.132C362.065 500.132 362.453 499.874 362.614 499.47C382.817 445.225 393.281 351.561 393.378 350.624C393.443 350.075 393.039 349.574 392.49 349.51C391.941 349.445 391.44 349.849 391.376 350.398C391.279 351.334 380.847 444.757 360.725 498.76C360.531 499.276 360.789 499.858 361.322 500.068C361.435 500.116 361.565 500.132 361.678 500.132H361.661Z" fill="#4A429A"/>
<path d="M325.94 300.336C325.552 301.514 326.957 303.033 329.089 303.727C331.22 304.421 333.255 304.05 333.643 302.871C334.03 301.692 332.625 300.174 330.494 299.48C328.362 298.785 326.327 299.157 325.94 300.336Z" fill="#4A429A"/>
<path d="M309.435 296.137C309.048 297.316 310.453 298.834 312.584 299.528C314.716 300.223 316.751 299.851 317.138 298.672C317.526 297.493 316.121 295.975 313.989 295.281C311.858 294.587 309.823 294.958 309.435 296.137Z" fill="#4A429A"/>
<path d="M304.768 304.954C305.22 304.954 305.624 304.647 305.753 304.195C305.899 303.662 305.559 303.097 305.027 302.968C290.783 299.318 289.895 290.743 289.863 290.388C289.814 289.839 289.33 289.419 288.781 289.467C288.232 289.516 287.812 290 287.86 290.549C287.892 290.969 288.813 300.901 304.542 304.938C304.623 304.954 304.704 304.97 304.8 304.97L304.768 304.954Z" fill="#4A429A"/>
<path d="M282.886 394.259C301.877 394.259 318.333 389.382 329.347 384.957C343.074 379.45 351.601 373.41 351.681 373.346C352.133 373.023 352.247 372.393 351.924 371.941C351.601 371.489 350.971 371.376 350.519 371.698C350.438 371.763 342.073 377.69 328.556 383.1C316.105 388.09 296.581 393.677 274.359 391.885C273.794 391.836 273.31 392.256 273.277 392.805C273.229 393.354 273.649 393.855 274.198 393.887C277.153 394.13 280.06 394.226 282.902 394.226L282.886 394.259Z" fill="#4A429A"/>
<path d="M340.377 429.997C340.377 429.997 294.998 418.434 266.721 418.095L258.081 455.512C258.081 455.512 302.895 463.054 331.253 467.996L340.377 429.997Z" fill="#4A429A"/>
<path d="M365.828 313.723C374.565 313.723 381.25 311.285 385.804 308.765C393.055 304.76 396.592 299.835 396.737 299.625C397.06 299.173 396.947 298.543 396.495 298.22C396.043 297.897 395.413 298.01 395.09 298.462C395.09 298.462 391.634 303.275 384.755 307.038C378.408 310.51 367.733 313.836 352.876 309.944C352.343 309.799 351.778 310.122 351.649 310.671C351.504 311.204 351.827 311.769 352.376 311.898C357.301 313.19 361.807 313.707 365.844 313.707L365.828 313.723Z" fill="#4A429A"/>
<path d="M249.635 449.909C250.313 447.454 250.992 445.064 251.622 442.738C250.976 445.064 250.313 447.454 249.635 449.909Z" fill="#28100C"/>
<path d="M252.93 437.991C253.172 437.102 253.398 436.246 253.624 435.391C253.398 436.246 253.156 437.102 252.93 437.991Z" fill="#28100C"/>
<path d="M262.91 389.608C262.91 389.608 263.055 389.656 263.136 389.656C263.798 389.737 264.412 389.269 264.492 388.607C266.705 371.715 269.143 351.641 269.369 345.973C269.402 345.311 268.885 344.746 268.207 344.713C267.544 344.681 266.979 345.198 266.947 345.876C266.721 351.464 264.282 371.44 262.086 388.3C262.005 388.881 262.361 389.43 262.91 389.608Z" fill="#4A429A"/>
<path d="M307.078 201.019C307.078 201.019 295.369 210.224 303.056 224.257C303.056 224.257 307.271 207.866 307.078 201.019Z" fill="#28100C"/>
<path d="M353.958 264.339C353.958 264.339 361.548 271.719 363.115 266.277C364.681 260.835 362.033 258.122 362.033 258.122C362.033 258.122 370.237 266.003 370.366 260.06C370.495 254.133 366.215 248.82 366.215 248.82C366.215 248.82 373.822 243.249 371.335 234.334C368.848 225.42 368.541 218.896 371.028 211.596C373.515 204.297 372.384 196.755 368.783 193.493C363.519 188.713 355.864 189.456 355.864 189.456C355.864 189.456 351.794 176.117 336.55 176.472C321.305 176.827 312.423 164.925 304.736 168.026C297.049 171.127 288.231 196.529 308.918 204.055C308.918 204.055 349.905 231.54 353.958 264.339Z" fill="#28100C"/>
<path d="M315.249 271.59L314.248 281.231C315.281 282.265 316.331 283.169 317.413 283.977C333.094 295.765 352.44 285.22 352.44 285.22L355.929 251.824L320.11 269.249L315.265 271.606L315.249 271.59Z" fill="#F79A86"/>
<path d="M315.346 270.75L314.248 281.231C315.281 282.265 316.331 283.169 317.413 283.977C332.238 279.826 344.172 265.97 344.172 265.97L320.11 269.249L315.346 270.767V270.75Z" fill="#28100C"/>
<path d="M307.675 227.632C307.675 227.632 302.879 220.591 299.116 226.744C295.353 232.897 296.355 246.22 304.914 244.944L307.691 227.632H307.675Z" fill="#F3796B"/>
<path d="M299.471 249.692C299.471 249.692 297.356 269.604 318.091 271.719C338.681 273.835 354.41 259.123 355.218 258.461H355.25L355.912 254.278L359.352 232.671L361.193 221.124C361.193 221.124 366.006 200.486 346.53 194.591C332.302 190.28 318.43 191.281 310.776 198.128C310.533 198.354 310.291 198.58 310.065 198.806C307.627 201.245 305.915 204.345 305.14 208.14L302.313 228.924L301.619 234.027L299.487 249.676L299.471 249.692Z" fill="#F79A86"/>
<path d="M359.336 232.687C359.336 232.687 354.669 234.14 352.618 239.809C349.533 239.486 347.386 236.611 347.951 233.559C348.274 231.783 348.694 229.667 349.178 227.277C350.664 220.123 352.941 217.862 348.791 213.373C344.64 208.883 348.548 206.219 344.769 203.053C340.619 199.581 330.381 205.734 322.839 204.168C313.892 202.311 314.651 196.239 306.851 203.199C306.851 203.199 308.919 192.718 319.092 189.892C329.266 187.05 357.85 189.553 362.227 203.167C366.603 216.78 359.336 232.687 359.336 232.687Z" fill="#28100C"/>
<path d="M342.945 217.652C341.572 220.01 338.568 220.834 336.178 219.493C334.789 218.718 333.142 217.927 331.366 217.345C328.863 216.522 327.538 213.776 328.507 211.322C328.507 211.322 338.843 211.451 342.945 217.668V217.652Z" fill="#28100C"/>
<path d="M304.623 213.357C305.43 215.795 308.046 217.135 310.501 216.376C311.938 215.924 313.618 215.521 315.346 215.327C317.817 215.052 319.561 212.775 319.157 210.321C319.157 210.321 309.597 208.431 304.623 213.357Z" fill="#28100C"/>
<path d="M329.04 234.35C328.895 235.804 331.753 237.29 335.435 237.677C339.117 238.065 342.234 237.193 342.379 235.755C342.525 234.302 339.666 232.816 335.984 232.429C332.302 232.041 329.186 232.913 329.04 234.35Z" fill="#F3796B"/>
<path d="M301.587 234.06C302.104 234.173 302.637 234.254 303.186 234.302C306.868 234.69 309.984 233.817 310.13 232.364C310.275 230.911 307.417 229.425 303.735 229.037C303.234 228.989 302.75 228.957 302.281 228.957L301.587 234.06Z" fill="#F3796B"/>
<path d="M328.653 226.244C328.443 228.23 329.186 229.942 330.3 230.055C331.414 230.168 332.48 228.65 332.69 226.663C332.9 224.677 332.157 222.965 331.043 222.852C329.928 222.739 328.863 224.257 328.653 226.244Z" fill="#28100C"/>
<path d="M308.644 224.144C308.434 226.131 309.177 227.842 310.291 227.955C311.405 228.068 312.471 226.55 312.681 224.564C312.891 222.578 312.148 220.866 311.034 220.753C309.92 220.64 308.854 222.158 308.644 224.144Z" fill="#28100C"/>
<path d="M315.152 244.734C322.435 245.493 329.04 239.873 329.137 239.793C329.476 239.502 329.525 238.969 329.218 238.63C328.927 238.291 328.394 238.242 328.055 238.549C327.619 238.921 317.381 247.609 309.048 240.245C308.709 239.938 308.192 239.97 307.885 240.309C307.578 240.649 307.61 241.165 307.95 241.472C310.275 243.539 312.746 244.476 315.152 244.734Z" fill="#28100C"/>
<path d="M349.566 249.708C349.63 249.934 351.617 256.297 355.202 258.461H355.218L355.88 254.278C355.88 254.278 352.666 253.374 349.55 249.692L349.566 249.708Z" fill="#28100C"/>
<path d="M354.653 236.256C354.653 236.256 363.729 226.389 368.686 235.4C372.772 242.829 361.791 259.931 352.925 252.744L354.653 236.24V236.256Z" fill="#F79A86"/>
<path d="M354.362 249.66C354.782 249.708 355.169 249.434 355.25 249.014C356.978 241.004 364.051 238.904 364.358 238.808C364.794 238.678 365.053 238.226 364.924 237.79C364.794 237.354 364.342 237.096 363.906 237.225C363.567 237.322 355.589 239.663 353.635 248.658C353.538 249.111 353.829 249.547 354.265 249.644C354.297 249.644 354.33 249.644 354.362 249.644V249.66Z" fill="#28100C"/>
<path d="M362.517 245.493C362.76 245.526 363.002 245.445 363.179 245.251C363.502 244.928 363.502 244.411 363.179 244.088C362.873 243.781 360.176 241.165 357.656 241.537C357.204 241.601 356.897 242.021 356.962 242.473C357.027 242.926 357.447 243.232 357.899 243.168C359.352 242.958 361.355 244.605 362.017 245.251C362.162 245.396 362.34 245.461 362.517 245.493Z" fill="#28100C"/>
<path d="M319.464 235.416C319.916 235.465 320.32 235.142 320.368 234.69C320.417 234.237 320.094 233.834 319.642 233.785C316.622 233.462 315.378 231.734 314.991 230.991C318.963 224.596 322.92 218.153 322.968 218.072C323.21 217.685 323.081 217.184 322.694 216.942C322.306 216.699 321.805 216.829 321.563 217.216C321.515 217.281 317.413 223.983 313.359 230.491C313.23 230.701 313.198 230.959 313.279 231.201C313.327 231.347 314.619 234.916 319.464 235.416Z" fill="#28100C"/>
<g opacity="0.5">
<path d="M319.076 228.892C318.915 231.67 323.404 234.189 329.137 234.544C334.854 234.899 339.634 232.929 339.796 230.152C339.957 227.374 335.468 224.855 329.735 224.499C324.018 224.16 319.238 226.114 319.076 228.892Z" fill="white"/>
</g>
<g opacity="0.5">
<path d="M292.576 227.778C292.414 230.555 296.904 233.075 302.636 233.43C308.353 233.785 313.133 231.815 313.295 229.037C313.456 226.26 308.967 223.74 303.234 223.385C297.517 223.046 292.737 225 292.576 227.778Z" fill="white"/>
</g>
<path d="M313.246 229.005C313.392 229.005 313.537 228.957 313.65 228.86C315.83 226.954 318.705 228.827 318.818 228.908C319.092 229.086 319.48 229.021 319.658 228.747C319.835 228.472 319.771 228.101 319.496 227.907C318.204 227.035 315.152 225.937 312.859 227.955C312.6 228.181 312.584 228.553 312.794 228.811C312.907 228.957 313.085 229.021 313.246 229.021V229.005Z" fill="#28100C"/>
<path d="M361.694 231.799C361.871 231.799 362.049 231.718 362.178 231.557C362.388 231.298 362.34 230.911 362.065 230.701C352.925 223.611 340.054 228.731 339.521 228.94C339.214 229.07 339.069 229.425 339.182 229.732C339.311 230.039 339.666 230.184 339.973 230.071C340.102 230.022 352.731 225 361.322 231.67C361.435 231.75 361.565 231.799 361.694 231.799Z" fill="#28100C"/>
<path d="M378.731 512.066C378.731 512.066 375.873 595.412 275.28 562.225C221.552 544.494 197.716 530.88 197.716 530.88C197.716 530.88 180.775 577.906 171.667 597.091C162.559 616.276 137.254 663.238 137.254 663.238L93.8449 652.547C93.8449 652.547 144.392 476.619 175.608 469.174C206.824 461.73 244.274 473.567 310.323 488.553C310.323 488.553 368.008 497.387 378.715 512.066H378.731Z" fill="white"/>
<path d="M136.026 647.444C136.543 647.622 137.141 647.412 137.431 646.927C151.449 624.254 165.369 589.905 176.544 562.306C181.244 550.695 185.313 540.65 188.705 533.157C193.291 522.999 195.164 520.981 195.875 520.674C198.992 519.333 209.23 523.968 222.182 529.814C240.947 538.292 269.289 551.115 302.265 557.962C319.173 561.466 333.837 559.173 345.803 551.131C367.12 536.823 372.384 509.709 372.594 508.562C372.724 507.9 372.288 507.27 371.625 507.157C370.963 507.028 370.334 507.464 370.204 508.126C370.156 508.401 364.891 535.418 344.43 549.145C333.013 556.799 318.996 558.963 302.75 555.604C270.048 548.822 241.835 536.064 223.167 527.618C208.1 520.803 199.008 516.701 194.906 518.461C191.175 520.06 185.265 534.287 174.284 561.402C163.141 588.904 149.269 623.156 135.348 645.652C134.993 646.217 135.17 646.976 135.736 647.315C135.816 647.363 135.897 647.412 135.994 647.428L136.026 647.444Z" fill="#D8D8D8"/>
<path d="M99.0933 639.079C99.0933 639.079 99.1418 639.079 99.158 639.095L143.035 650.69C143.681 650.868 144.343 650.48 144.521 649.834C144.698 649.188 144.311 648.51 143.665 648.349L99.7878 636.754C99.1418 636.576 98.4797 636.963 98.302 637.609C98.1405 638.239 98.4958 638.869 99.0933 639.063V639.079Z" fill="#D8D8D8"/>
<path d="M148.108 462.747L146.548 479.275C146.524 479.533 146.713 479.761 146.971 479.785L280.029 492.34C280.287 492.364 280.515 492.175 280.54 491.918L282.099 475.39C282.123 475.132 281.934 474.904 281.677 474.879L148.618 462.325C148.36 462.301 148.132 462.49 148.108 462.747Z" fill="#28100C"/>
<path d="M132.49 478.412C127.451 477.943 123.349 474.132 122.51 469.142L106.296 372.926C105.311 367.047 110.155 361.831 116.098 362.38L176.092 368.033C180.146 368.42 183.44 371.44 184.167 375.445L204.111 485.162L132.49 478.412Z" fill="#28100C"/>
<path d="M166.79 458.597L166.08 453.429L170.149 453.736L168.922 448.972L174.316 449.392L175.543 454.156L178.87 454.414L177.643 449.65L183.036 450.07L184.264 454.834L188.979 455.189L189.69 460.357L185.62 460.05L186.718 464.427L191.434 464.782L192.144 469.949L188.075 469.643L189.302 474.407L183.908 473.987L182.681 469.223L179.354 468.964L180.582 473.728L175.188 473.309L173.961 468.545L169.245 468.189L168.534 463.022L172.604 463.328L171.506 458.952L166.79 458.597ZM177.998 463.748L181.325 464.007L180.226 459.63L176.9 459.372L177.998 463.748Z" fill="#4A429A"/>
<path d="M113.692 388.768C115.097 395.05 120.798 400.541 126.434 401.041C132.07 401.542 135.493 396.843 134.088 390.561C132.683 384.279 126.983 378.788 121.347 378.287C115.711 377.787 112.287 382.486 113.692 388.768Z" fill="#FBB416"/>
<path d="M125.093 387.638C125.368 388.897 125.998 389.947 126.482 389.995C126.967 390.044 127.144 389.059 126.854 387.799C126.579 386.539 125.949 385.49 125.465 385.441C124.98 385.393 124.803 386.378 125.093 387.638Z" fill="#28100C"/>
<path d="M119.764 387.169C120.039 388.429 120.669 389.479 121.153 389.527C121.637 389.575 121.815 388.59 121.524 387.331C121.25 386.071 120.62 385.021 120.136 384.973C119.651 384.925 119.473 385.91 119.764 387.169Z" fill="#28100C"/>
<path d="M125.045 395.195C129.437 395.583 129.341 390.77 129.341 390.722C129.341 390.464 129.114 390.189 128.872 390.108C128.614 390.028 128.42 390.173 128.436 390.448C128.436 390.625 128.485 394.533 124.835 394.21C121.169 393.887 119.441 389.818 119.377 389.656C119.264 389.382 118.989 389.188 118.763 389.236C118.537 389.269 118.44 389.527 118.553 389.802C118.569 389.85 120.669 394.824 125.061 395.211L125.045 395.195Z" fill="#28100C"/>
<path d="M184.167 375.461L203.949 484.274L210.813 484.92L191.03 376.107C190.303 372.102 187.009 369.066 182.956 368.695L176.092 368.049C180.146 368.436 183.44 371.456 184.167 375.461Z" fill="#28100C"/>
<path d="M203.336 483.547C203.336 483.547 203.449 483.547 203.513 483.531C204.062 483.434 204.434 482.901 204.321 482.352L184.764 373.782C184.667 373.233 184.134 372.861 183.585 372.958C183.036 373.055 182.665 373.588 182.778 374.137L202.334 482.707C202.415 483.192 202.851 483.547 203.336 483.547Z" fill="#5A4C54"/>
<path d="M162.349 425.523C163.157 431.547 159.039 435.972 153.144 435.423C147.25 434.874 141.824 429.528 141.016 423.505C140.209 417.481 144.327 413.056 150.221 413.605C156.116 414.154 161.542 419.5 162.349 425.507V425.523Z" fill="white"/>
<path d="M300.876 425.426C301.296 425.426 301.7 425.152 301.829 424.732C313.553 389.737 330.494 302.564 330.655 301.676C330.768 301.127 330.397 300.594 329.848 300.497C329.299 300.384 328.766 300.755 328.669 301.305C328.507 302.177 311.599 389.22 299.907 424.102C299.73 424.635 300.02 425.2 300.537 425.378C300.65 425.41 300.747 425.426 300.86 425.426H300.876Z" fill="white"/>
<path d="M275.813 422.1C276.313 422.1 276.749 421.728 276.814 421.228C283.952 369.131 313.747 299.011 314.054 298.301C314.28 297.784 314.038 297.187 313.521 296.977C313.004 296.75 312.407 296.993 312.197 297.509C311.89 298.22 281.982 368.582 274.812 420.953C274.731 421.502 275.118 422.019 275.684 422.1C275.732 422.1 275.781 422.1 275.829 422.1H275.813Z" fill="white"/>
<path d="M347.806 557.994C349.953 557.994 352.263 557.252 354.62 555.782C363.212 550.404 373.612 534.094 377.471 509.805C377.552 509.256 377.181 508.74 376.632 508.643C376.083 508.546 375.566 508.933 375.469 509.482C371.706 533.157 361.742 548.935 353.538 554.07C350.745 555.814 348.096 556.379 345.884 555.701C344.107 555.152 342.719 553.941 341.685 551.971C334.531 538.486 346.966 497.871 347.095 497.468C347.256 496.935 346.966 496.369 346.433 496.208C345.9 496.046 345.335 496.337 345.173 496.87C344.64 498.566 332.367 538.712 339.909 552.924C341.201 555.362 343.025 556.945 345.319 557.639C346.126 557.881 346.966 558.011 347.822 558.011L347.806 557.994Z" fill="white"/>
<path d="M403.861 440.512C402.139 439.066 398.3 439.819 395.361 439.311C391.503 438.648 385.5 438.847 382.147 439.837C377.119 441.332 362.524 446.571 360.629 450.488C358.722 454.417 371.653 450.872 374.318 450.211C376.995 449.539 379.044 450.072 379.044 450.072C379.044 450.072 350.024 460.487 348.864 463.766C347.704 467.044 364.817 462.783 369.035 461.699C369.035 461.699 347.596 470.76 347.516 473.082C347.355 477.725 371.459 468.357 371.459 468.357C371.459 468.357 353.82 476.895 355.297 479.753C356.872 482.791 375.748 473.577 375.748 473.577C375.748 473.577 365.051 480.826 365.209 483.883C365.368 486.94 388.984 473.451 392.372 470.941C395.76 468.431 405.43 462.411 409.232 458.427C411.826 455.723 409.319 445.081 403.839 440.513L403.861 440.512Z" fill="#F79A86"/>
<path d="M383.245 472.523C382.934 472.829 382.444 472.855 382.104 472.579C374.033 466.145 373.573 455.945 373.549 455.523C373.535 455.044 373.912 454.644 374.391 454.63C374.87 454.616 375.27 454.993 375.284 455.472C375.284 455.472 375.757 465.329 383.185 471.245C383.548 471.543 383.62 472.078 383.323 472.463C383.301 472.487 383.268 472.522 383.246 472.546L383.245 472.523Z" fill="#F3796B"/>
<path d="M398.718 457.148C398.486 457.395 398.1 457.475 397.764 457.313C388.319 453.158 382.334 458.612 382.266 458.66C381.922 458.978 381.373 458.972 381.043 458.616C380.724 458.271 380.743 457.734 381.076 457.404C381.353 457.133 387.973 451.101 398.471 455.716C398.91 455.909 399.097 456.417 398.904 456.857C398.85 456.961 398.784 457.055 398.718 457.125L398.718 457.148Z" fill="#F3796B"/>
<path d="M388.484 344.511L388.415 344.49L388.462 344.534L388.659 344.631L389.1 344.87L390.075 345.389C390.749 345.758 391.457 346.137 392.165 346.539C393.583 347.342 395.012 348.18 396.444 349.063C399.295 350.842 402.149 352.711 404.903 354.709C406.281 355.72 407.659 356.731 409.015 357.765C410.359 358.81 411.692 359.868 413.004 360.972C414.316 362.053 415.594 363.192 416.861 364.32C418.128 365.448 419.373 366.599 420.585 367.786C430.344 377.21 438.532 388.016 444.584 399.936C444.971 400.679 445.335 401.422 445.701 402.188C446.077 402.942 446.408 403.698 446.761 404.453L447.018 405.028C446.908 404.792 446.821 404.531 446.71 404.249C446.522 403.695 446.332 403.072 446.222 402.436C446.1 401.788 446.024 401.139 446.017 400.511C445.999 399.895 446.027 399.3 446.069 398.784C446.176 397.753 446.405 396.992 446.564 396.565C446.722 396.115 446.853 395.928 446.864 395.916C446.909 395.892 446.584 396.473 445.988 397.199C445.393 397.925 444.573 398.817 443.608 399.771C442.642 400.724 441.54 401.705 440.346 402.688C437.972 404.689 435.255 406.699 432.423 408.69C426.713 412.651 420.462 416.479 414.071 420.174C410.881 422.027 407.621 423.837 404.338 425.624C402.708 426.529 401.065 427.399 399.423 428.27L394.665 430.798L407.391 465.77L408.997 465.22L410.49 464.696L413.418 463.639C415.35 462.908 417.27 462.166 419.201 461.413C423.029 459.872 426.82 458.253 430.619 456.53C438.194 453.063 445.702 449.244 453.254 444.624C457.025 442.319 460.801 439.798 464.645 436.874C466.566 435.401 468.496 433.825 470.444 432.066C472.403 430.318 474.379 428.363 476.402 426.053C478.413 423.732 480.493 421.055 482.491 417.5C483.478 415.723 484.446 413.684 485.29 411.306C486.124 408.962 486.831 406.188 487.141 403.129C487.301 401.594 487.357 399.981 487.297 398.349C487.226 396.706 487.051 395.032 486.729 393.396C486.407 391.761 485.971 390.151 485.435 388.648C485.173 387.89 484.866 387.157 484.571 386.457L484.205 385.645C483.716 384.563 483.239 383.492 482.739 382.421C482.239 381.35 481.728 380.292 481.195 379.233C480.15 377.116 479.038 375.047 477.892 372.99C476.724 370.957 475.534 368.924 474.287 366.95C473.052 364.964 471.75 363.026 470.426 361.112C469.09 359.209 467.721 357.318 466.308 355.498C460.677 348.146 454.391 341.442 447.667 335.391C444.311 332.359 440.834 329.503 437.248 326.832C433.662 324.161 430.011 321.607 426.23 319.262C424.344 318.084 422.438 316.952 420.497 315.855C418.557 314.758 416.607 313.696 414.602 312.715C412.596 311.712 410.58 310.743 408.485 309.833C407.432 309.373 406.38 308.936 405.281 308.499C404.727 308.287 404.183 308.063 403.594 307.841L401.515 307.079L388.45 344.523L388.484 344.511Z" fill="#5C4DA0"/>
<path d="M473.576 416.197C473.788 415.643 473.575 414.998 473.052 414.705C465.011 410.097 454.782 407.599 454.356 407.486C453.7 407.334 453.049 407.718 452.897 408.374C452.745 409.03 453.13 409.681 453.785 409.833C453.889 409.864 464.107 412.374 471.857 416.796C472.438 417.122 473.175 416.929 473.512 416.336C473.556 416.289 473.566 416.232 473.587 416.185L473.576 416.197Z" fill="#4A429A"/>
<path d="M467.315 406.477C467.401 406.268 467.417 406.039 467.376 405.801C467.242 405.142 466.612 404.704 465.953 404.837C465.601 404.905 457.093 406.537 454.384 407.668C453.763 407.926 453.476 408.631 453.734 409.252C453.992 409.873 454.697 410.16 455.318 409.902C457.801 408.87 466.321 407.225 466.412 407.223C466.844 407.142 467.166 406.846 467.315 406.477Z" fill="#4A429A"/>
<path d="M416.065 461.608C416.172 461.353 416.152 461.068 415.996 460.81C410.499 451.387 403.459 432.276 403.397 432.083C403.223 431.609 402.701 431.361 402.204 431.536C401.729 431.71 401.482 432.231 401.655 432.706C401.718 432.898 408.819 452.156 414.401 461.725C414.654 462.163 415.218 462.318 415.667 462.053C415.858 461.945 415.991 461.781 416.054 461.597L416.065 461.608Z" fill="#4A429A"/>
<path d="M403.698 687.074C403.956 688.205 404.263 689.319 404.618 690.401C406.992 697.684 411.352 703.498 417.279 705.904C439.726 715.012 460.833 711.863 503.79 710.862C546.73 709.86 578.624 698.492 574.652 663.125C574.329 660.331 573.796 657.731 573.069 655.293C572.116 652.095 570.824 649.204 569.29 646.588C567.498 643.504 565.366 640.791 563.041 638.433C550.993 626.192 532.842 622.187 516.58 627.758C500.527 633.265 472.154 635.93 442.617 636.511C410.884 637.157 399.014 666.807 403.698 687.042V687.074Z" fill="#FBB416"/>
<path d="M403.698 687.074C403.956 688.204 404.263 689.319 404.618 690.401C412.224 697.038 426.565 701.237 447.349 702.884C453.873 703.417 461.059 703.659 468.778 703.659C486.655 703.659 507.488 702.27 530.242 699.541C549.492 697.232 562.508 690.449 568.951 679.387C573.747 671.151 573.99 662.156 573.069 655.309C572.116 652.111 570.824 649.221 569.29 646.604C570.954 651.724 574.62 666.258 567.465 678.547C561.313 689.125 548.716 695.617 530.032 697.862C462.529 705.968 416.584 702.028 403.698 687.074Z" fill="#F8A81B"/>
<path d="M532.034 643.326C545.228 644.392 554.982 656.423 552.818 669.488C552.77 669.746 552.738 669.988 552.673 670.247C549.831 684.474 530.694 684.054 477.564 684.555C435.947 684.942 414.55 670.053 425.628 651.659C434.429 637.028 503.935 641.065 532.034 643.326Z" fill="#F8A81B"/>
<path d="M431.668 654.098C451.03 678.208 530 679.565 540.367 661.51C545.422 652.725 544.017 641.453 541.272 632.216C540.981 631.247 540.674 630.294 540.367 629.373C537.525 621.057 533.956 614.984 533.956 614.984C533.956 614.984 534.279 623.576 505.146 620.491C501.819 620.136 498.024 619.991 493.971 620.039C493.212 620.039 492.453 620.055 491.678 620.088C460.268 621.024 414.953 633.281 431.684 654.114L431.668 654.098Z" fill="white"/>
<path d="M495.118 639.725C499.672 644.812 507.601 646.734 518.017 645.264C518.259 645.232 518.485 645.199 518.711 645.167C531.841 643.149 538.236 636.899 541.255 632.216C540.965 631.247 540.658 630.294 540.351 629.373C538.123 633.685 532.244 641.033 517.694 643.068C508.053 644.424 500.802 642.745 496.765 638.239C493.131 634.17 492.162 627.888 493.939 620.023C493.18 620.023 492.421 620.039 491.645 620.071C489.853 628.437 491.048 635.203 495.101 639.725H495.118Z" fill="#FBAB47"/>
<path d="M442.617 636.544C442.617 636.544 424.078 635.171 421.881 625.821C419.685 616.47 462.222 624.674 466.905 605.392C471.604 586.126 452.791 570.752 446.686 576.388C439.452 583.074 455.294 585.916 456.15 595.832C456.86 604.068 451.757 611.658 435.915 612.788C420.073 613.919 412.999 616.373 413.064 623.737C413.145 631.747 425.967 640.016 433.767 640.532C441.567 641.049 442.617 636.544 442.617 636.544Z" fill="white"/>
<path d="M523.96 607.879C523.96 607.879 529.467 600.725 538.413 595.961C539.721 595.267 541.272 596.316 541.11 597.786L539.414 614.193C539.414 614.193 526.56 615.291 523.944 607.895L523.96 607.879Z" fill="white"/>
<path d="M536.282 612.207C537.008 608.493 537.186 604.585 538.042 600.192C538.042 600.192 528.369 605.957 527.803 609.122C527.803 609.122 533.132 613.16 536.282 612.207Z" fill="#5A4C54"/>
<path d="M507.181 608.541C507.181 608.541 499.623 603.987 489.724 602.743C488.109 602.534 486.914 604.245 487.641 605.715L494.407 619.216C494.407 619.216 507.439 616.389 507.165 608.541H507.181Z" fill="white"/>
<path d="M497.282 617.052C495.247 613.854 493.664 610.269 491.274 606.506C491.274 606.506 502.368 608.363 504.064 611.109C504.064 611.109 500.56 616.809 497.282 617.068V617.052Z" fill="#5A4C54"/>
<path d="M531.146 608.17C531.146 608.17 542.596 609.914 541.74 623.334C540.884 636.753 527.819 638.175 527.819 638.175C527.819 638.175 525.494 642.486 517.419 644.231C512.252 645.345 504.565 644.99 502.611 641.194C502.611 641.194 491.403 637.093 491.532 627.096C491.678 616.018 505.017 602.421 531.146 608.17Z" fill="white"/>
<path d="M542.773 639.886C542.773 639.886 538.106 658.926 534.182 662.867C530.274 666.791 526.027 668.955 520.568 669.617C511.767 670.683 513.382 676.561 516.014 678.58C519.051 680.921 524.444 679.581 532.551 679.581C539.544 679.581 546.133 678.192 548.506 673.59C550.864 668.987 550.719 655.39 548.2 647.735C546.649 643.019 544.469 640.549 542.79 639.903L542.773 639.886Z" fill="white"/>
<path d="M483.619 641.146C483.619 641.146 488.286 660.186 492.211 664.126C496.119 668.05 500.398 670.004 505.824 670.876C512.462 671.926 511.848 678.192 510.378 679.839C507.811 682.698 501.949 680.84 493.842 680.84C486.849 680.84 478.581 678.047 476.207 673.444C473.849 668.842 475.674 656.649 478.193 648.994C479.744 644.279 481.924 641.808 483.603 641.162L483.619 641.146Z" fill="white"/>
<path d="M444.522 637.351C444.522 637.351 432.201 634.396 428.228 643.681C421.978 658.28 426.968 666.629 443.618 668.955C460.268 671.28 479.178 674.429 464.886 662.576C450.578 650.739 444.522 637.351 444.522 637.351Z" fill="white"/>
<path d="M510.831 629.842C510.831 629.842 515.805 629.309 517.129 629.922C519.357 630.94 515.772 635.09 513.495 635.445C511.218 635.801 509.006 633.136 509.038 631.392C509.07 629.664 510.831 629.842 510.831 629.842Z" fill="#5A4C54"/>
<path d="M508.279 626.014C508.521 625.869 508.78 626.176 508.602 626.386C507.617 627.565 505.792 629.115 503.321 628.598C501.286 628.162 500.511 626.741 500.237 625.498C500.172 625.223 500.56 625.062 500.689 625.32C501.222 626.24 502.239 627.177 504.226 627.306C505.727 627.403 507.262 626.66 508.279 626.03V626.014Z" fill="#5A4C54"/>
<path d="M527.545 624.997C527.755 624.803 528.062 625.062 527.932 625.304C527.173 626.644 525.672 628.501 523.152 628.453C521.069 628.404 520.052 627.145 519.551 625.966C519.438 625.707 519.777 625.481 519.971 625.707C520.649 626.515 521.828 627.258 523.814 627.016C525.3 626.838 526.689 625.821 527.561 625.013L527.545 624.997Z" fill="#5A4C54"/>
</svg>
