<svg width="512" height="720" viewBox="0 0 512 720" fill="none" xmlns="http://www.w3.org/2000/svg">
<path d="M325.303 701.846L315.076 700.558L333.69 507.787L343.916 509.09L325.303 701.846Z" fill="#D79128"/>
<path d="M449.846 701.846L460.058 700.558L441.444 507.787L431.233 509.09L449.846 701.846Z" fill="#D79128"/>
<path d="M444.22 565.742H330.915V571.431H444.22V565.742Z" fill="#D79128"/>
<path d="M454.17 519.393H320.964C315.72 519.393 311.458 515.146 311.458 509.887C311.458 504.628 315.705 500.381 320.964 500.381H454.17C459.414 500.381 463.676 504.628 463.676 509.887C463.676 515.146 459.429 519.393 454.17 519.393Z" fill="#5C4CA0"/>
<path d="M426.526 18.4905V159.761C426.526 160.467 427.63 160.467 427.63 159.761V18.4905C427.63 17.7852 426.526 17.7852 426.526 18.4905Z" fill="#5C4CA0"/>
<path d="M427.078 162.214C429.915 162.214 432.214 159.915 432.214 157.078C432.214 154.241 429.915 151.942 427.078 151.942C424.241 151.942 421.942 154.241 421.942 157.078C421.942 159.915 424.241 162.214 427.078 162.214Z" fill="#5C4CA0"/>
<path d="M57.9709 0V411.071H453.511V0H57.9709ZM447.592 214.053H242.341V6.59283H447.592V214.053ZM236.407 6.59283V214.053H63.8892V6.59283H236.407ZM63.8892 220.645H236.407V404.463H63.8892V220.645ZM242.325 404.463V220.645H447.577V404.463H242.325Z" fill="#FCB415"/>
<path d="M511.482 404.371H0V422.34H511.482V404.371Z" fill="#5C4CA0"/>
<path d="M97.6967 345.281C93.649 331.559 83.5144 320.596 73.7018 310.186C88.6814 311.933 102.419 322.007 108.598 335.76C108.659 322.528 114.485 309.419 124.267 300.496C120.572 311.167 118.794 322.513 119.085 333.797C126.951 321.869 139.6 313.191 153.567 310.17C139.6 322.727 128.652 338.611 121.86 356.121C113.535 357.869 104.979 358.467 96.5008 357.869L97.6967 345.281Z" fill="#3A2F81"/>
<path d="M121.416 331.681C120.48 331.42 119.99 330.148 120.526 329.335C121.078 328.507 122.427 328.553 123.041 329.305C123.332 329.657 123.976 329.274 123.807 328.86C123.547 328.185 123.378 327.465 123.409 326.744C123.439 326.177 123.685 325.518 124.129 325.242C124.344 325.104 124.497 325.058 124.773 325.012C124.712 325.012 124.881 325.012 124.896 325.012C124.957 325.012 125.019 325.012 125.095 325.012C125.233 325.012 125.218 325.012 125.371 325.058C125.417 325.058 125.479 325.088 125.525 325.104C125.678 325.165 125.724 325.196 125.785 325.242C125.969 325.41 125.954 325.38 126.031 325.518C126.077 325.671 126.092 325.732 126.107 325.794C126.398 325.717 126.705 325.625 126.996 325.548C126.736 324.92 126.598 324.23 126.674 323.54C126.705 323.233 126.797 322.926 126.95 322.651C127.088 322.405 127.272 322.191 127.472 322.068C127.855 321.823 128.346 321.777 128.775 321.899C129.22 322.022 129.496 322.252 129.557 322.712C129.848 322.635 130.155 322.543 130.446 322.467C130.216 321.317 130.124 319.906 130.86 318.894C131.013 318.695 131.151 318.541 131.351 318.434C131.535 318.327 131.688 318.281 131.933 318.235C132.087 318.219 132.148 318.22 132.209 318.204C132.317 318.204 132.485 318.204 132.547 318.204C132.593 318.204 132.761 318.25 132.838 318.265C132.884 318.265 132.93 318.296 132.976 318.311C133.068 318.342 133.007 318.311 133.083 318.357C133.175 318.403 133.329 318.495 133.359 318.526C133.359 318.526 133.436 318.603 133.467 318.618C133.681 318.909 133.712 319.001 133.712 319.247C134.003 319.17 134.279 319.093 134.571 319.017C134.095 317.898 134.111 316.41 134.877 315.414C135.061 315.184 135.276 314.984 135.536 314.831C135.659 314.754 135.69 314.754 135.828 314.708C135.935 314.678 136.134 314.632 136.18 314.616C136.717 314.555 137.208 314.647 137.652 314.892C137.775 314.969 137.898 315.046 137.974 315.107C138.036 315.153 138.082 315.214 138.128 315.26C138.174 315.306 138.22 315.368 138.22 315.368C138.296 315.49 138.373 315.613 138.388 315.69C138.434 315.843 138.465 315.966 138.465 316.088L139.37 315.966C138.94 314.954 138.925 313.651 139.63 312.731C139.799 312.516 140.013 312.332 140.259 312.194C140.427 312.102 140.703 312.025 140.887 312.025C141.378 311.995 141.823 312.133 142.237 312.424C142.421 312.547 142.589 312.746 142.697 312.945C142.804 313.145 142.85 313.359 142.819 313.635H143.739C143.693 312.531 144.061 310.998 145.257 310.615C145.502 310.538 145.717 310.538 145.962 310.615C146.208 310.676 146.453 310.814 146.637 310.983C146.836 311.151 146.974 311.351 147.036 311.565C147.097 311.78 147.082 311.933 146.974 312.148L147.818 312.501C148.094 311.458 148.4 310.293 149.213 309.541C149.565 309.219 149.918 309.051 150.347 309.051C150.746 309.051 151.129 309.174 151.467 309.419C151.589 309.511 151.712 309.649 151.804 309.833C151.773 309.771 151.835 309.909 151.835 309.94C151.865 310.17 151.85 310.216 151.835 310.323L152.739 310.446C152.709 310.201 152.739 310.093 152.862 309.909C152.862 309.909 153 309.771 153.031 309.741C153.092 309.695 153.23 309.603 153.337 309.572C153.69 309.419 154.134 309.434 154.426 309.741C154.763 310.078 154.809 310.615 154.686 311.059C154.548 311.596 154.165 311.995 153.644 312.179C152.985 312.409 152.233 312.347 151.605 312.041C151.375 311.933 151.099 311.979 150.976 312.209C150.853 312.424 150.915 312.715 151.145 312.838C151.85 313.221 152.08 314.264 151.589 314.877C151.083 315.506 149.933 315.475 149.458 314.816C149.105 314.325 148.431 314.739 148.661 315.276C148.983 316.027 148.661 316.947 148.124 317.545C147.542 318.189 146.698 318.557 145.87 318.327C145.533 318.219 145.211 318.557 145.303 318.894C145.548 319.845 145.104 320.811 144.368 321.47C143.617 322.129 142.62 322.421 141.685 322.053C141.286 321.899 140.979 322.405 141.163 322.727C141.639 323.555 141.593 324.644 141.01 325.41C140.473 326.116 139.523 326.499 138.649 326.33C138.327 326.269 137.944 326.545 138.082 326.898C138.695 328.599 137.162 330.639 135.337 330.516C134.816 330.47 134.709 331.313 135.214 331.421C135.475 331.482 135.644 331.635 135.72 331.911C135.812 332.202 135.797 332.509 135.69 332.785C135.368 333.536 134.402 333.889 133.681 334.165C133.39 334.272 133.252 334.564 133.405 334.84C134.203 336.342 132.669 338.611 130.952 338.366C130.722 338.335 130.492 338.397 130.4 338.627C130.324 338.811 130.37 339.117 130.584 339.209C130.891 339.332 131.013 339.516 131.075 339.838C131.136 340.114 131.075 340.466 130.937 340.742C130.508 341.524 129.465 341.8 128.683 342.03C128.315 342.138 128.269 342.536 128.484 342.797C128.622 342.981 128.683 343.226 128.683 343.472C128.683 343.717 128.591 343.993 128.468 344.238C128.33 344.468 128.162 344.667 127.947 344.805C127.686 344.974 127.487 345.005 127.18 344.974C126.843 344.928 126.598 345.403 126.782 345.664C127.027 346.017 127.042 346.507 126.72 346.814C126.399 347.121 125.908 347.105 125.571 346.86C125.371 346.722 125.049 346.829 124.942 347.029C124.804 347.259 124.896 347.519 125.111 347.657C125.785 348.133 126.797 348.041 127.38 347.458C127.962 346.875 128.054 345.863 127.579 345.189C127.441 345.419 127.318 345.649 127.18 345.879C128.07 345.986 128.882 345.388 129.296 344.637C129.741 343.824 129.726 342.874 129.158 342.122L128.959 342.889C130.032 342.567 131.335 342.138 131.841 341.018C132.24 340.129 132.102 338.811 131.09 338.381L130.738 339.225C132.01 339.409 133.16 338.78 133.896 337.768C134.601 336.771 134.801 335.438 134.233 334.349L133.957 335.024C135.015 334.625 136.257 334.104 136.64 332.923C136.947 331.988 136.548 330.715 135.49 330.485C135.445 330.792 135.414 331.083 135.368 331.39C137.76 331.574 139.814 328.86 139.002 326.606C138.818 326.79 138.618 326.989 138.434 327.173C139.707 327.403 141.025 326.913 141.807 325.87C142.589 324.828 142.651 323.325 142.007 322.191C141.838 322.42 141.654 322.65 141.485 322.865C144 323.846 146.913 321.133 146.238 318.572C146.054 318.756 145.855 318.955 145.671 319.139C146.836 319.477 148.078 318.971 148.86 318.082C149.673 317.146 150.01 315.889 149.504 314.724C149.243 314.877 148.967 315.03 148.707 315.184C149.351 316.088 150.562 316.38 151.574 315.935C152.586 315.49 153 314.325 152.709 313.298C152.54 312.731 152.172 312.225 151.651 311.933C151.497 312.194 151.344 312.47 151.191 312.731C152.003 313.114 152.938 313.252 153.812 312.991C154.656 312.746 155.315 312.148 155.591 311.32C155.852 310.569 155.729 309.695 155.223 309.066C154.748 308.468 153.935 308.3 153.215 308.53C152.448 308.775 151.758 309.48 151.865 310.323C151.896 310.553 152.019 310.753 152.264 310.783C152.494 310.814 152.709 310.676 152.77 310.446C153.077 309.22 152.019 308.254 150.884 308.054C150.286 307.947 149.657 308.024 149.136 308.361C148.538 308.729 148.078 309.296 147.756 309.925C147.388 310.63 147.174 311.381 146.974 312.148C146.836 312.654 147.557 312.976 147.818 312.501C148.492 311.305 147.496 310.017 146.346 309.649C145.027 309.219 143.785 310.17 143.279 311.335C142.973 312.025 142.835 312.792 142.865 313.543C142.881 314.141 143.724 314.126 143.785 313.543C143.939 312.102 142.513 311.09 141.209 310.998C139.676 310.891 138.511 312.179 138.266 313.605C138.112 314.448 138.189 315.322 138.526 316.104C138.618 316.318 138.787 316.472 139.032 316.441C139.247 316.41 139.446 316.226 139.431 315.981C139.354 314.478 137.898 313.543 136.502 313.559C134.831 313.559 133.666 314.954 133.436 316.533C133.298 317.499 133.436 318.465 133.819 319.354C133.896 319.538 134.157 319.615 134.341 319.569C134.54 319.507 134.678 319.323 134.678 319.124C134.693 317.821 133.39 317.085 132.209 317.131C131.581 317.162 130.967 317.376 130.523 317.806C129.971 318.342 129.634 319.093 129.511 319.845C129.358 320.749 129.434 321.654 129.618 322.559C129.664 322.804 129.956 322.942 130.186 322.88C130.446 322.804 130.554 322.559 130.508 322.313C130.324 321.194 129.097 320.657 128.07 320.78C127.502 320.841 126.966 321.071 126.583 321.501C126.107 322.022 125.877 322.681 125.816 323.371C125.739 324.122 125.893 324.92 126.184 325.625C126.414 326.177 127.165 325.962 127.073 325.38C126.92 324.245 125.663 323.8 124.651 323.954C124.145 324.03 123.639 324.26 123.301 324.659C122.826 325.196 122.611 325.901 122.565 326.591C122.519 327.388 122.719 328.201 122.995 328.952C123.255 328.799 123.516 328.645 123.761 328.507C123.01 327.572 121.554 327.419 120.542 328.017C119.422 328.661 119.192 330.056 119.744 331.16C120.036 331.773 120.588 332.248 121.247 332.417C121.83 332.57 122.075 331.681 121.492 331.528L121.416 331.681Z" fill="#5C4CA0"/>
<path d="M109.043 333.874C107.969 333.797 106.666 333.214 106.697 331.957C106.697 331.497 106.957 331.129 107.341 331.022C107.54 330.961 107.709 330.961 107.893 331.007C108.077 331.053 108.184 331.129 108.291 331.298L109.012 330.731C108.429 330.133 107.647 329.397 107.601 328.492C107.601 328.155 107.709 327.817 107.923 327.572C108.015 327.45 108.169 327.342 108.276 327.281C108.445 327.204 108.552 327.204 108.705 327.25C109.196 327.373 109.533 326.652 109.058 326.407C108.123 325.916 107.065 324.782 107.494 323.632C107.632 323.264 108 322.927 108.353 322.789C108.583 322.697 108.751 322.666 108.997 322.681C109.119 322.681 109.334 322.773 109.457 322.896C109.84 323.249 110.438 322.804 110.177 322.329C109.87 321.761 109.579 321.179 109.411 320.565C109.273 320.059 109.211 319.446 109.457 318.986C109.641 318.634 109.947 318.342 110.3 318.204C110.622 318.082 110.959 318.066 111.204 318.266C111.588 318.588 112.201 318.189 111.925 317.698C111.373 316.686 110.637 315.168 111.327 314.08C111.542 313.727 111.925 313.451 112.293 313.344C112.676 313.221 113.029 313.252 113.305 313.528C113.474 313.681 113.734 313.712 113.918 313.559C114.087 313.436 114.179 313.145 114.041 312.961C113.474 312.225 112.891 311.075 113.366 310.17C113.535 309.848 113.826 309.588 114.148 309.465C114.501 309.327 114.807 309.327 115.129 309.542L115.589 308.744C114.869 308.3 114.685 307.15 115.237 306.521C115.85 305.831 117.015 305.938 117.567 306.644C117.782 306.429 117.997 306.214 118.227 305.984C117.782 305.494 117.445 304.881 117.368 304.221C117.322 303.915 117.353 303.593 117.46 303.301C117.506 303.163 117.583 303.025 117.659 302.903C117.629 302.949 117.736 302.826 117.736 302.811C117.997 302.581 118.181 302.504 118.411 302.458C118.548 302.427 118.518 302.427 118.671 302.427C118.733 302.427 118.794 302.427 118.871 302.427C118.886 302.427 119.07 302.443 118.978 302.427C119.238 302.473 119.346 302.504 119.545 302.657C119.76 302.918 119.76 302.918 119.79 303.087C119.913 303.577 120.741 303.485 120.695 302.964C120.634 302.213 120.664 301.415 121.048 300.741C121.354 300.204 121.906 299.821 122.52 299.821C122.658 299.821 122.78 299.836 122.903 299.882C123.025 299.928 123.148 300.005 123.194 300.051C123.271 300.128 123.317 300.174 123.378 300.312C123.347 300.25 123.409 300.404 123.409 300.434C123.409 300.45 123.439 300.618 123.439 300.557C123.47 300.802 123.439 301.001 123.347 301.155C123.347 301.17 123.24 301.308 123.286 301.247C123.255 301.293 123.209 301.339 123.163 301.369C123.225 301.323 123.087 301.415 123.072 301.415C123.133 301.385 122.98 301.431 122.964 301.446L123.317 302.289C123.715 302.013 124.359 301.553 124.819 301.814C125.095 301.967 125.203 302.351 125.203 302.703C125.203 303.117 124.942 303.485 124.605 303.792C124.175 304.16 123.639 304.405 123.133 304.651C122.796 304.804 122.872 305.264 123.133 305.448C123.7 305.846 123.685 306.751 123.378 307.318C122.933 308.162 121.998 308.637 121.186 309.082L121.753 309.802C121.86 309.71 121.998 309.68 122.106 309.695C122.305 309.726 122.474 309.818 122.612 309.956C122.964 310.293 122.949 310.814 122.719 311.274C122.428 311.857 121.937 312.286 121.446 312.7C120.91 313.145 120.388 313.574 119.99 314.157C119.744 314.509 120.143 314.923 120.511 314.831C120.634 314.8 120.787 314.816 120.91 314.877C121.063 314.954 121.186 315.076 121.278 315.23C121.492 315.552 121.584 315.966 121.492 316.318C121.232 317.315 120.128 317.882 119.3 318.327C118.886 318.557 119.085 319.185 119.53 319.185C119.852 319.185 120.143 319.385 120.327 319.691C120.542 320.029 120.634 320.443 120.572 320.841C120.419 321.869 119.422 322.651 118.671 323.294C118.411 323.509 118.549 324 118.871 324.061C119.422 324.168 119.99 324.276 120.542 324.383C120.45 324.153 120.358 323.923 120.266 323.708C119.698 324.812 118.978 325.794 118.089 326.637C117.797 326.913 118.012 327.434 118.411 327.419C118.932 327.404 119.438 327.388 119.959 327.358C119.806 327.158 119.668 326.974 119.514 326.775C119.407 327.496 119.146 328.17 118.671 328.722C118.457 328.983 118.518 329.397 118.871 329.489C118.993 329.519 119.07 329.611 119.116 329.734C119.177 329.918 119.177 330.087 119.116 330.271C118.947 330.715 118.395 331.022 117.997 331.267C117.491 331.574 117.951 332.371 118.457 332.065C119.116 331.666 119.898 331.16 120.051 330.347C120.189 329.627 119.882 328.799 119.116 328.584L119.315 329.351C119.882 328.676 120.281 327.863 120.404 326.99C120.45 326.714 120.296 326.392 119.959 326.407C119.438 326.422 118.932 326.438 118.411 326.468L118.732 327.25C119.683 326.346 120.465 325.288 121.063 324.122C121.186 323.877 121.094 323.509 120.787 323.448C120.235 323.34 119.668 323.233 119.116 323.126L119.315 323.892C120.312 323.065 121.446 322.053 121.508 320.657C121.554 319.507 120.772 318.25 119.53 318.235L119.76 319.093C120.91 318.48 122.305 317.622 122.443 316.196C122.566 314.984 121.569 313.62 120.266 313.911C120.434 314.141 120.618 314.371 120.787 314.586C121.247 313.927 121.937 313.482 122.535 312.945C123.133 312.409 123.669 311.703 123.777 310.891C123.884 310.139 123.577 309.45 122.949 309.036C122.366 308.652 121.6 308.637 121.094 309.128C120.695 309.496 121.201 310.093 121.661 309.848C122.688 309.296 123.823 308.637 124.298 307.502C124.712 306.506 124.543 305.249 123.608 304.62V305.417C124.819 304.85 126.261 303.991 126.138 302.458C126.092 301.86 125.801 301.231 125.233 300.94C124.405 300.526 123.562 300.971 122.872 301.446C122.443 301.753 122.704 302.397 123.225 302.289C124.497 302.029 124.727 300.235 123.915 299.392C123.424 298.87 122.627 298.763 121.968 298.932C121.247 299.116 120.618 299.606 120.266 300.266C119.821 301.078 119.744 302.029 119.806 302.918L120.71 302.795C120.434 301.676 119.162 301.277 118.15 301.538C116.831 301.875 116.295 303.209 116.494 304.482C116.632 305.279 117.046 306.015 117.583 306.613C117.751 306.797 118.073 306.782 118.242 306.613C118.441 306.414 118.395 306.153 118.242 305.954C117.552 305.08 116.264 304.896 115.283 305.341C114.255 305.816 113.842 306.996 114.102 308.054C114.255 308.652 114.623 309.189 115.145 309.511C115.651 309.833 116.095 309.036 115.605 308.714C114.593 308.039 113.228 308.622 112.646 309.588C111.894 310.814 112.462 312.378 113.259 313.421C113.504 313.237 113.75 313.053 113.98 312.853C112.968 311.872 111.388 312.439 110.637 313.467C109.594 314.877 110.392 316.809 111.143 318.158L111.864 317.591C110.836 316.732 109.395 317.315 108.736 318.342C107.847 319.737 108.69 321.485 109.38 322.773C109.625 322.589 109.871 322.405 110.1 322.206C109.242 321.424 107.969 321.685 107.187 322.436C106.267 323.31 106.313 324.674 106.957 325.702C107.356 326.33 107.923 326.836 108.583 327.174C108.705 326.898 108.813 326.606 108.935 326.33C107.739 326.024 106.773 327.128 106.666 328.216C106.528 329.473 107.525 330.531 108.337 331.359C108.705 331.727 109.334 331.252 109.058 330.792C108.46 329.795 106.927 329.78 106.206 330.654C105.777 331.16 105.685 331.835 105.807 332.479C105.93 333.122 106.329 333.674 106.85 334.058C107.479 334.518 108.261 334.717 109.027 334.778C109.273 334.794 109.487 334.548 109.487 334.318C109.487 334.058 109.273 333.874 109.027 333.858L109.043 333.874Z" fill="#5C4CA0"/>
<path d="M98.2487 345.741C97.5587 346.185 96.5161 346.078 95.9948 345.388C95.4889 344.698 95.6422 343.686 96.2555 343.134C96.5162 342.904 96.3782 342.429 96.0562 342.368C95.1209 342.168 94.1856 341.417 94.109 340.405C94.0323 339.516 94.8602 338.458 95.8262 338.642C95.7955 338.366 95.7495 338.075 95.7189 337.799C94.8756 338.259 93.741 338.059 93.097 337.354C92.4378 336.649 92.3918 335.392 92.9897 334.64C93.1891 334.38 93.1584 333.95 92.7904 333.874C91.7478 333.628 90.3986 333.352 89.7546 332.417C89.494 332.049 89.3867 331.62 89.402 331.175C89.4174 330.792 89.586 330.424 89.9386 330.225C90.4139 329.949 90.0766 329.289 89.586 329.381C88.7887 329.519 87.9301 329.059 87.5928 328.354C87.2401 327.618 87.4702 326.698 88.0528 326.162C88.2214 326.008 88.2214 325.732 88.0834 325.548C87.9301 325.349 87.7001 325.334 87.4855 325.426C86.5809 325.84 85.431 325.533 84.8024 324.797C84.1584 324.03 84.1431 322.773 84.7564 321.976C84.879 321.807 84.9403 321.608 84.833 321.409C84.7257 321.24 84.511 321.133 84.3117 321.194C83.3918 321.47 82.3492 321.194 81.6899 320.489C81.046 319.799 80.8466 318.664 81.2146 317.79C81.2913 317.622 81.3066 317.438 81.1839 317.284C81.0766 317.146 80.8773 317.054 80.6933 317.116C80.264 317.254 79.8194 317.346 79.3748 317.315C79.0375 317.284 78.6081 317.116 78.4548 316.87C78.3782 316.748 78.3322 316.64 78.3168 316.502C78.3015 316.395 78.3168 316.196 78.3168 316.119C78.3782 315.92 78.4088 315.889 78.4241 315.858C78.4701 315.797 78.5008 315.766 78.5315 315.751C78.6541 315.69 78.7001 315.69 78.7461 315.674L78.3935 314.831C77.1209 315.429 75.787 314.264 74.9898 313.39C74.7444 313.129 74.5298 312.853 74.3151 312.577C74.0852 312.271 73.8398 311.949 73.6865 311.596C73.5792 311.335 73.5179 311.044 73.6405 310.768C73.7325 310.553 73.9472 310.354 74.1465 310.415C74.3611 310.461 74.6831 310.354 74.7138 310.093C74.7904 309.557 75.419 309.296 75.9403 309.419C76.6916 309.588 77.2129 310.323 77.6422 310.906C77.7955 311.121 78.1635 311.259 78.3628 310.998C79.1601 310.001 80.9386 310.139 81.5366 311.289C81.7053 311.596 82.1652 311.581 82.3339 311.289C82.7938 310.507 83.7904 310.109 84.649 310.369C85.5536 310.645 86.1056 311.596 86.0443 312.501C86.0136 312.869 86.4582 313.068 86.7342 312.899C87.2095 312.623 87.7921 312.685 88.2674 312.945C88.758 313.206 89.1413 313.681 89.172 314.202C89.172 314.386 89.31 314.616 89.5093 314.647C90.4139 314.8 91.0425 315.644 90.9505 316.548C90.9045 317.008 91.6098 317.162 91.8091 316.778C92.1005 316.242 92.8518 316.012 93.3731 316.303C93.925 316.625 94.0477 317.392 93.741 317.898C93.5417 318.22 93.879 318.726 94.2623 318.572C94.9369 318.296 95.8722 318.097 96.5161 318.572C96.7461 318.756 96.8994 319.017 96.9608 319.293C97.0221 319.538 96.9914 319.799 96.8228 319.998C96.6541 320.182 96.6388 320.473 96.8228 320.657C96.9914 320.826 97.3134 320.841 97.4821 320.657C97.6047 320.519 97.6967 320.504 97.8347 320.535C98.034 320.565 98.218 320.688 98.3407 320.841C98.6933 321.332 98.4633 322.114 98.3253 322.635C98.6166 322.712 98.9233 322.804 99.2146 322.881C99.4139 321.915 100.702 321.255 101.484 321.884C102.158 322.421 102.02 323.693 101.208 324.046C100.794 324.23 100.993 324.95 101.438 324.904C101.775 324.874 101.959 324.904 102.235 325.119C102.434 325.257 102.618 325.518 102.741 325.794C102.971 326.315 102.94 326.913 102.511 327.296C102.756 327.48 103.002 327.664 103.232 327.863C103.6 327.296 104.596 327.235 105.025 327.771C105.455 328.293 105.179 329.274 104.55 329.504C104.673 329.78 104.78 330.071 104.903 330.347C105.087 330.271 105.363 330.547 105.439 330.761C105.608 331.206 105.332 331.773 105.164 332.172C105.056 332.402 105.102 332.662 105.332 332.8C105.531 332.923 105.869 332.862 105.961 332.632C106.298 331.881 106.635 331.022 106.221 330.225C105.869 329.565 105.133 329.259 104.443 329.55C103.968 329.749 104.305 330.577 104.796 330.393C106.037 329.933 106.589 328.277 105.746 327.204C104.918 326.146 103.14 326.3 102.419 327.388C102.112 327.848 102.772 328.277 103.14 327.955C104.596 326.668 103.37 323.77 101.407 323.969L101.637 324.828C102.726 324.352 103.032 322.927 102.588 321.915C102.066 320.703 100.61 320.427 99.5212 321.01C98.9079 321.332 98.4173 321.915 98.2793 322.605C98.1567 323.187 99.0306 323.432 99.1686 322.85C99.3986 321.945 99.5979 320.841 98.8926 320.09C98.356 319.523 97.3441 319.323 96.7768 319.967C96.9914 320.182 97.2061 320.397 97.4361 320.627C98.1107 319.845 97.9267 318.664 97.2061 317.974C96.3475 317.146 94.9982 317.238 93.971 317.652C94.1396 317.882 94.3236 318.112 94.4923 318.327C95.0749 317.392 94.7529 316.027 93.787 315.475C92.8211 314.923 91.4872 315.306 90.9659 316.272L91.8245 316.502C91.9625 315.214 90.9812 313.911 89.7086 313.712C89.816 313.865 89.9386 314.003 90.0459 314.157C89.9386 312.378 87.7921 311.167 86.2129 312.056C86.4429 312.194 86.6729 312.317 86.9029 312.455C87.0102 311.136 86.1056 309.818 84.833 309.434C83.5758 309.051 82.1345 309.649 81.4753 310.768H82.2725C81.4139 309.128 78.8075 308.836 77.6422 310.293C77.8875 310.323 78.1328 310.354 78.3628 310.385C77.7649 309.557 77.0289 308.591 75.9403 308.438C75.0357 308.3 73.9012 308.775 73.7478 309.787C73.9318 309.679 74.1311 309.572 74.3151 309.465C73.5485 309.281 72.9046 309.817 72.6593 310.507C72.3833 311.274 72.7972 312.071 73.2265 312.685C74.0698 313.881 75.1277 315.092 76.523 315.644C77.2742 315.95 78.0715 315.92 78.8075 315.582C79.0068 315.49 79.0834 315.199 78.9915 315C78.8995 314.785 78.6848 314.693 78.4395 314.739C77.3356 314.938 77.0903 316.334 77.5502 317.208C78.1788 318.388 79.8041 318.342 80.8773 317.974C80.7087 317.744 80.5247 317.514 80.356 317.3C79.8194 318.557 80.0034 320.029 80.9233 321.071C81.7972 322.053 83.2538 322.436 84.4957 322.068C84.3424 321.807 84.189 321.547 84.0511 321.301C83.1311 322.482 83.1005 324.199 84.0511 325.38C84.971 326.499 86.6115 326.79 87.8995 326.208L87.3322 325.487C86.4276 326.315 86.1823 327.71 86.7189 328.814C87.2708 329.918 88.5741 330.485 89.7546 330.271L89.402 329.427C88.2521 330.102 88.1754 331.681 88.7887 332.739C89.5246 334.027 91.1346 334.441 92.4685 334.763L92.2691 333.996C91.3645 335.162 91.3492 336.848 92.3304 337.983C93.2504 339.041 94.9062 339.271 96.1175 338.611C96.4548 338.427 96.4088 337.845 96.0102 337.768C94.523 337.492 93.1124 338.795 93.1124 340.298C93.1124 341.77 94.3696 342.981 95.7495 343.288L95.5502 342.521C94.5843 343.38 94.4309 344.974 95.2129 345.986C95.9948 347.013 97.5741 347.274 98.6473 346.569C99.138 346.247 98.678 345.449 98.1873 345.771L98.2487 345.741Z" fill="#5C4CA0"/>
<path d="M79.896 314.417C82.4718 315.644 84.9096 317.177 87.1175 318.986C89.356 320.795 91.3798 322.865 93.2044 325.088C95.0749 327.388 96.7154 329.887 98.126 332.494C99.6439 335.3 100.916 338.228 101.959 341.233C103.017 344.269 103.86 347.381 104.55 350.524C104.642 350.923 104.719 351.306 104.795 351.705C104.841 351.95 105.133 352.088 105.363 352.027C105.623 351.95 105.731 351.705 105.685 351.46C105.041 348.286 104.228 345.127 103.216 342.046C102.189 338.964 100.962 335.944 99.4752 333.061C98.0647 330.332 96.4241 327.725 94.5382 325.303C92.7597 323.003 90.7512 320.887 88.5434 318.986C86.3355 317.1 83.9131 315.444 81.3373 314.11C81.0153 313.942 80.6933 313.789 80.3713 313.635C80.1413 313.528 79.8654 313.574 79.7427 313.804C79.62 314.003 79.6814 314.325 79.9113 314.432L79.896 314.417Z" fill="white"/>
<path d="M118.686 309.633C117 315.015 115.329 320.412 113.995 325.886C112.676 331.298 111.695 336.817 111.434 342.398C111.281 345.526 111.358 348.654 111.726 351.751C111.756 351.996 111.925 352.211 112.186 352.211C112.416 352.211 112.676 351.996 112.646 351.751C112.002 346.247 112.262 340.681 113.075 335.208C113.903 329.688 115.267 324.26 116.831 318.894C117.705 315.874 118.64 312.869 119.591 309.863C119.775 309.296 118.87 309.051 118.702 309.618L118.686 309.633Z" fill="white"/>
<path d="M142.681 316.395C140.412 318.511 138.158 320.642 135.981 322.85C133.804 325.058 131.688 327.327 129.726 329.719C127.809 332.065 126.015 334.518 124.451 337.109C122.933 339.639 121.615 342.306 120.588 345.082C119.56 347.857 118.84 350.739 118.502 353.683C118.456 354.036 118.426 354.404 118.395 354.756C118.38 355.002 118.625 355.216 118.855 355.216C119.116 355.216 119.3 355.002 119.315 354.756C119.56 351.874 120.189 349.037 121.124 346.308C122.059 343.564 123.301 340.927 124.758 338.412C126.23 335.852 127.932 333.429 129.772 331.129C131.688 328.737 133.743 326.453 135.889 324.26C138.036 322.053 140.259 319.937 142.497 317.836C142.773 317.576 143.049 317.315 143.325 317.054C143.754 316.64 143.111 315.996 142.666 316.395H142.681Z" fill="white"/>
<path d="M140.474 346.431H85.5383V359.754C91.5178 359.754 96.3628 364.599 96.3628 370.579V386.402C96.3628 395.601 103.814 403.053 113.014 403.053C122.213 403.053 129.664 395.601 129.664 386.402V370.579C129.664 364.599 134.509 359.754 140.489 359.754V346.431H140.474Z" fill="#FCB415"/>
<path d="M142.129 389.729H83.8671C83.8671 398.008 90.5825 404.708 98.8466 404.708H127.15C135.429 404.708 142.129 397.993 142.129 389.729Z" fill="#D79128"/>
<path d="M87.8534 358.819H136.594C137.192 358.819 137.192 357.899 136.594 357.899H87.8534C87.2555 357.899 87.2555 358.819 87.8534 358.819Z" fill="#D79128"/>
<path d="M98.0033 379.824C99.1839 378.092 100.349 376.359 101.53 374.627C101.284 374.657 101.039 374.688 100.809 374.719C102.128 376.236 103.278 377.892 104.274 379.64C104.458 379.962 104.872 379.901 105.072 379.64C106.559 377.662 108.23 375.822 110.054 374.151C109.809 374.121 109.564 374.09 109.334 374.059C110.499 375.792 111.45 377.678 112.155 379.655C112.293 380.039 112.768 380.115 112.998 379.763C114.071 378.138 115.313 376.65 116.724 375.301C117.077 374.964 117.445 374.642 117.813 374.32C117.951 374.197 118.104 374.044 118.272 373.967C118.426 373.906 118.502 373.967 118.594 374.075C118.901 374.412 119.116 374.887 119.346 375.271C119.606 375.73 119.867 376.175 120.112 376.65C120.664 377.693 121.186 378.751 121.661 379.824C121.799 380.146 122.305 380.1 122.458 379.824C123.654 377.8 125.049 375.899 126.644 374.167C126.399 374.136 126.153 374.105 125.923 374.075C126.736 375.255 127.533 376.436 128.346 377.601C128.484 377.8 128.744 377.892 128.974 377.77C129.174 377.647 129.281 377.34 129.143 377.141L126.721 373.615C126.567 373.385 126.215 373.293 126 373.523C124.359 375.301 122.903 377.264 121.676 379.364H122.474C122.014 378.322 121.523 377.294 120.986 376.298C120.71 375.776 120.434 375.27 120.128 374.765C119.867 374.32 119.622 373.829 119.284 373.446C118.916 373.017 118.364 372.894 117.843 373.155C117.383 373.385 116.985 373.814 116.601 374.151C115.819 374.857 115.068 375.623 114.378 376.42C113.581 377.325 112.86 378.291 112.201 379.303C112.477 379.334 112.768 379.38 113.044 379.41C112.324 377.356 111.342 375.408 110.131 373.599C109.962 373.339 109.64 373.293 109.41 373.507C107.525 375.24 105.807 377.141 104.29 379.18H105.087C104.06 377.371 102.833 375.654 101.468 374.075C101.254 373.829 100.901 373.937 100.748 374.167C99.5672 375.899 98.402 377.632 97.2214 379.364C96.8841 379.855 97.6814 380.315 98.0187 379.824H98.0033Z" fill="#D79128"/>
<path d="M92.7597 348.991H122.044C122.642 348.991 122.642 348.071 122.044 348.071H92.7597C92.1617 348.071 92.1617 348.991 92.7597 348.991Z" fill="#D79128"/>
<path d="M85.2469 18.4905V86.3968C85.2469 87.102 86.3509 87.102 86.3509 86.3968V18.4905C86.3509 17.7852 85.2469 17.7852 85.2469 18.4905Z" fill="#443923"/>
<path d="M463.615 12.3578H42.3782V34.7428H463.615V12.3578Z" fill="#D79128"/>
<path d="M463.615 37.671H42.3782V60.056H463.615V37.671Z" fill="#D79128"/>
<path d="M463.615 62.9846H42.3782V85.3696H463.615V62.9846Z" fill="#D79128"/>
<path d="M100.089 719.202C114.7 717.331 129.312 715.461 143.939 713.575C148.661 712.977 153.828 712.134 156.956 708.546C157.968 707.396 158.719 705.817 158.305 704.345C157.753 702.367 155.484 701.478 153.475 701.018C141.746 698.35 129.511 700.481 117.675 702.613C109.64 704.054 101.606 705.51 93.5724 706.952L100.089 719.187V719.202Z" fill="#5C4CA0"/>
<path d="M302.213 663.209C310.661 651.127 319.093 639.061 327.542 626.979C330.271 623.085 333.122 618.7 332.57 613.977C332.386 612.46 331.743 610.85 330.378 610.16C328.538 609.224 326.361 610.313 324.674 611.494C314.8 618.378 308.162 628.865 301.768 639.061C297.444 645.976 293.105 652.906 288.782 659.821L302.213 663.224V663.209Z" fill="#5C4CA0"/>
<path d="M155.407 603.321C146.315 625.384 138.419 647.938 131.765 670.844C129.741 677.79 127.641 685.119 122.443 690.148C112.186 700.098 90.7359 702.183 79.6508 711.214C89.126 712.272 129.373 707.381 132.685 706.875C136.671 706.262 140.75 707.12 144.782 706.906C148.814 706.691 153.261 704.959 154.686 701.171C155.668 698.55 154.947 695.637 154.794 692.831C154.303 683.601 160.053 675.352 165.327 667.747C181.916 643.844 196.482 617.58 200.545 588.771L155.407 603.306V603.321Z" fill="#F6A472"/>
<path d="M257.688 547.85C267.301 569.683 278.095 590.994 290.008 611.678C293.611 617.948 297.444 624.541 297.475 631.763C297.536 646.052 283.047 656.923 281.882 671.166C291.526 678.449 317.622 635.841 325.042 627.27C327.679 624.219 329.519 619.804 327.771 616.17C326.56 613.64 323.954 612.153 321.838 610.313C314.831 604.272 312.869 594.413 311.029 585.352C305.264 556.834 296.417 528.132 278.448 505.241L257.673 547.865L257.688 547.85Z" fill="#F6A472"/>
<path d="M386.003 222.332C379.886 222.332 374.918 217.364 374.918 211.247C374.918 205.129 379.886 200.161 386.003 200.161C392.121 200.161 397.088 205.129 397.088 211.247C397.088 217.364 392.121 222.332 386.003 222.332ZM386.003 201.02C380.361 201.02 375.777 205.604 375.777 211.247C375.777 216.889 380.361 221.473 386.003 221.473C391.645 221.473 396.23 216.889 396.23 211.247C396.23 205.604 391.645 201.02 386.003 201.02Z" fill="white"/>
<path d="M385.543 154.794C388.196 150.654 394.053 150.531 398.56 152.049C403.068 153.567 407.376 156.266 412.129 156.204C415.211 156.174 418.185 154.962 421.236 154.426C429.47 153.015 438.271 157.109 442.717 164.407C444.204 166.86 445.277 169.681 447.393 171.582C450.168 174.097 454.124 174.48 457.589 175.768C465.608 178.758 471.25 187.513 470.913 196.421C470.652 203.013 467.616 210.265 471.051 215.785C473.151 219.158 477.015 220.737 480.311 222.807C499.967 235.15 491.228 259.834 491.228 259.834C491.228 259.834 468.766 259.896 468.766 259.834C467.785 255.971 466.16 250.512 463.998 247.216C462.572 250.696 462.005 256.078 462.357 259.834C458.172 261.03 453.802 260.693 449.555 259.834C445.308 258.976 441.276 255.357 441.322 250.834C440.831 253.272 440.325 255.71 439.834 258.148C419.734 259.328 399.572 259.375 379.487 258.271C378.521 254.407 377.54 250.543 376.574 246.679C375.148 250.344 373.722 253.993 372.296 257.657C367.543 256.783 362.79 255.894 358.053 255.02C357.7 251.77 357.347 248.519 356.979 245.269C355.768 248.596 354.572 251.923 353.361 255.25C348.363 254.683 343.38 254.131 338.381 253.564C344.698 248.427 340.988 238.216 340.773 229.906C340.589 222.623 343.84 215.31 349.313 210.725C356.289 204.884 367.466 201.802 368.417 192.572C368.816 188.662 367.037 184.906 366.593 181.012C365.55 171.705 385.558 154.809 385.558 154.809L385.543 154.794Z" fill="#3F3622"/>
<path d="M346.875 378.337C373.937 389.683 402.071 398.484 430.773 404.586C429.163 421.972 426.051 439.206 421.497 456.056C418.032 468.874 413.432 481.937 404.08 491.366C389.1 506.453 365.857 508.707 344.637 510.087C311.688 512.218 278.724 514.349 245.775 516.48C224.632 554.979 206.141 594.935 190.518 635.979C160.927 633.143 131.504 628.405 102.511 621.827C116.08 581.213 132.715 541.701 149.335 502.221C154.41 490.17 159.485 478.104 165.71 466.604C169.175 460.196 173.085 453.863 178.681 449.187C185.458 443.514 194.136 440.739 202.676 438.455C221.78 433.334 241.359 429.991 261.076 428.473C272.468 427.599 284.351 427.231 294.439 421.88C299.698 419.105 304.175 415.104 308.622 411.133C321.056 400.032 333.49 388.932 345.909 377.831L346.875 378.337Z" fill="#FCB415"/>
<path d="M391.691 274.845C401.995 275.55 394.191 275.473 403.635 275.351C416.836 275.182 430.145 274.983 443.008 272.1C449.984 270.536 457.252 268.988 464.013 271.334C484.39 278.402 486.598 302.335 489.005 311.795C495.812 338.535 495.061 376.175 483.577 397.303C473.979 398.652 459.429 392.32 449.831 393.669C445.4 378.138 450.935 367.528 448.497 351.582C445.477 370.119 436.124 386.524 430.742 404.509C430.451 405.506 403.497 401.719 381.02 394.558C361.41 388.318 345.848 378.705 345.848 377.862C345.863 367.788 346.906 354.219 346.921 344.146C337.722 358.85 327.342 372.817 315.904 385.85C307.027 380.315 293.535 365.197 284.657 359.662C297.214 341.632 326.668 290.131 352.625 277.896C370.702 269.371 391.661 274.86 391.661 274.86L391.691 274.845Z" fill="#5C4CA0"/>
<path d="M477.398 382.247C456.838 370.241 435.081 360.26 412.558 352.533C414.199 346.921 415.518 341.202 416.499 335.422C417.097 331.896 417.572 328.216 416.606 324.766C414.429 316.993 406.242 313.267 398.192 310.998C397.088 310.691 396.322 312.086 397.165 312.853C399.725 315.214 402.501 317.361 405.429 319.262C401.136 316.288 396.552 313.727 391.753 311.657C390.465 311.105 389.146 312.439 389.744 313.696C391.63 317.698 395.11 320.949 399.281 322.451L387.659 316.41C386.877 315.996 385.957 316.656 386.08 317.529C386.739 322.19 390.649 326.361 395.371 327.005C392.811 324.95 389.882 323.356 386.77 322.298C386.494 322.206 386.218 322.129 385.926 322.098C382.768 321.746 382.676 323.325 384.225 325.226C385.543 326.851 387.429 329.918 388.978 331.328C392.673 334.686 392.657 340.512 391.446 345.373C390.25 350.218 388.15 355.032 388.671 360C388.962 362.713 390.066 365.35 391.799 367.466C393.914 370.042 396.843 371.79 399.71 373.477L458.233 407.836C461.989 410.044 466.589 410.274 470.56 408.449L476.248 405.827C479.851 404.172 482.519 400.998 483.546 397.165C485.095 391.369 482.581 385.236 477.398 382.216V382.247Z" fill="#F6A472"/>
<path d="M378.076 177.731C377.754 192.572 378.506 208.548 378.506 208.548L362.208 210.189L377.218 224.877C377.218 224.877 376.559 237.449 377.908 241.942C379.41 246.955 384.378 250.313 389.499 251.402C394.62 252.49 399.925 251.724 405.107 250.972C405.168 258.133 405.23 265.277 405.291 272.438C405.184 272.346 397.732 276.255 384.945 273.419C392.703 290.882 389.315 303.961 408.388 302.903C427.461 301.845 440.708 291.894 444.971 270.935L436.093 271.288C436.093 271.288 432.306 237.174 432.352 227.836C437.734 232.053 445.247 232.727 450.782 228.725C456.332 224.724 458.11 216.046 453.955 210.618C449.785 205.191 436.446 210.863 436.446 210.863L434.606 175.737L378.076 177.731Z" fill="#F6A472"/>
<path d="M384.623 155.269C379.395 158.366 374.013 161.601 370.042 166.278C368.065 168.608 366.562 171.23 365.581 174.128C364.615 176.995 364.109 180 363.526 182.959C362.959 185.857 362.346 188.816 361.088 191.499C359.754 194.366 357.669 196.574 355.139 198.444C352.564 200.346 349.804 201.971 347.458 204.163C345.312 206.187 343.487 208.564 342.046 211.14C339.179 216.306 337.829 222.347 338.427 228.235C338.504 228.986 338.611 229.722 338.734 230.458C338.872 231.271 340.099 230.918 339.961 230.121C338.933 224.387 339.884 218.346 342.444 213.133C343.717 210.526 345.373 208.119 347.381 206.019C349.528 203.78 352.104 202.124 354.634 200.361C357.179 198.582 359.57 196.62 361.196 193.952C362.729 191.453 363.588 188.617 364.216 185.78C364.86 182.882 365.305 179.923 366.041 177.041C366.777 174.158 367.85 171.429 369.552 168.976C373.002 164.008 378.245 160.589 383.335 157.523C383.979 157.14 384.608 156.756 385.252 156.373C385.957 155.959 385.313 154.855 384.608 155.269H384.623Z" fill="#3F3622"/>
<path d="M461.391 184.262C463.507 184.553 464.964 186.179 466.006 187.942C467.279 190.088 468.168 192.526 468.904 194.903C469.655 197.371 470.192 199.886 470.514 202.446C470.805 204.761 471.005 207.092 471.526 209.361C472.032 211.553 472.875 213.654 474.301 215.402C475.804 217.226 477.858 218.468 479.805 219.741C483.669 222.255 486.751 225.521 489.265 229.385C492.071 233.708 494.156 238.446 496.18 243.168C496.502 243.92 497.606 243.276 497.284 242.524C493.681 234.184 489.741 225.337 482.182 219.833C480.235 218.407 478.057 217.288 476.279 215.647C474.546 214.037 473.504 211.967 472.906 209.698C472.308 207.444 472.109 205.114 471.833 202.799C471.511 200.208 471.035 197.647 470.299 195.148C469.517 192.48 468.536 189.72 467.11 187.313C465.914 185.305 464.167 183.388 461.729 183.051C461.391 183.005 461.054 183.127 460.947 183.495C460.855 183.787 461.054 184.231 461.391 184.277V184.262Z" fill="#3F3622"/>
<path opacity="0.46" d="M405.107 250.972L422.233 242.877L405.69 262.303L405.107 250.972Z" fill="#BF6F41"/>
<path d="M439.543 222.869C441.812 220.124 444.403 217.671 447.286 215.586C447.562 215.386 447.7 215.034 447.516 214.712C447.362 214.436 446.918 214.282 446.642 214.482C443.667 216.628 440.984 219.143 438.638 221.964C438.117 222.593 439.022 223.497 439.543 222.869Z" fill="#944F2C"/>
<path d="M443.821 219.312C444.02 219.48 444.097 219.557 444.158 219.618C444.235 219.695 444.296 219.771 444.357 219.848C444.403 219.909 444.434 219.94 444.465 219.986C444.572 220.14 444.664 220.293 444.741 220.461C444.756 220.507 444.787 220.553 444.802 220.599C444.848 220.707 444.879 220.814 444.909 220.906C444.971 221.09 445.001 221.259 445.032 221.443C445.032 221.504 445.032 221.565 445.047 221.611C445.047 221.703 445.047 221.795 445.047 221.887C445.047 221.995 445.047 222.087 445.047 222.194C445.001 222.547 444.955 222.746 444.894 222.93C444.787 223.252 445.017 223.62 445.339 223.712C445.691 223.804 446.013 223.589 446.121 223.267C446.734 221.427 445.998 219.358 444.465 218.208C444.189 218.008 443.76 218.162 443.591 218.438C443.407 218.76 443.545 219.097 443.821 219.312Z" fill="#944F2C"/>
<path d="M379.564 233.218C382.998 233.386 386.386 231.5 388.073 228.511C388.472 227.79 387.383 227.161 386.969 227.867C385.482 230.488 382.553 232.083 379.564 231.93C378.751 231.884 378.751 233.156 379.564 233.202V233.218Z" fill="#944F2C"/>
<path d="M393.102 214.543C393.102 216.552 391.952 218.177 390.526 218.177C389.1 218.177 387.95 216.552 387.95 214.543C387.95 212.535 389.1 210.91 390.526 210.91C391.952 210.91 393.102 212.535 393.102 214.543Z" fill="#010101"/>
<path d="M387.95 198.368C388.533 199.38 388.272 200.944 389.3 201.526C389.867 201.848 390.572 201.68 391.201 201.496C394.574 200.53 398.346 199.472 401.473 201.097C398.56 197.08 392.596 195.654 388.196 197.923L387.95 198.368Z" fill="#3F3622"/>
<path d="M393.823 225.398C387.598 225.398 382.523 220.339 382.523 214.099C382.523 207.858 387.582 202.799 393.823 202.799C400.063 202.799 405.122 207.858 405.122 214.099C405.122 220.339 400.063 225.398 393.823 225.398ZM393.823 204.087C388.303 204.087 383.811 208.579 383.811 214.099C383.811 219.618 388.303 224.11 393.823 224.11C399.342 224.11 403.835 219.618 403.835 214.099C403.835 208.579 399.342 204.087 393.823 204.087Z" fill="white"/>
<path d="M376.988 208.18C378.828 206.739 382.032 207.981 382.553 210.235C382.737 211.032 383.964 210.695 383.78 209.898C383.412 208.303 382.124 207.138 380.622 206.601C379.088 206.065 377.386 206.264 376.099 207.276C375.823 207.49 375.869 207.95 376.099 208.18C376.359 208.441 376.727 208.395 377.003 208.18H376.988Z" fill="white"/>
<path d="M404.233 213.271C412.773 213.301 421.313 212.872 429.807 211.967C432.23 211.707 434.652 211.416 437.059 211.078C437.397 211.032 437.581 210.603 437.504 210.296C437.412 209.928 437.059 209.806 436.722 209.852C428.32 211.002 419.857 211.692 411.378 211.921C409.001 211.983 406.625 212.013 404.233 211.998C403.421 211.998 403.405 213.271 404.233 213.271Z" fill="white"/>
<path d="M446.029 208.058C444.143 195.439 440.402 183.725 438.531 171.122C438.362 170.018 438.163 168.838 437.35 168.056C436.323 167.075 434.713 167.044 433.272 167.059C413.218 167.427 393.178 168.593 373.231 170.57C373.661 171.644 374.105 172.717 374.535 173.79L375.807 173.622C378.46 178.85 381.342 184.354 386.463 187.482C392.075 190.916 399.204 190.809 405.628 192.526C412.712 194.412 418.722 198.95 423.383 204.378C428.994 210.909 429.7 213.148 429.73 215.325C429.761 218.177 426.511 220.538 423.812 219.649C427.492 222.332 433.088 219.633 435.035 215.509C435.817 213.853 436.17 212.09 436.293 210.281C441.214 209.668 446.059 208.073 446.059 208.073L446.029 208.058Z" fill="#3F3622"/>
<path d="M386.218 323.003C391.875 324.874 396.904 328.4 400.645 333.03C401.167 333.674 402.056 332.77 401.55 332.126C397.671 327.327 392.427 323.708 386.57 321.761C385.789 321.5 385.451 322.727 386.233 322.988L386.218 323.003Z" fill="#944F2C"/>
<path d="M390.955 318.48C396.72 321.01 401.673 325.196 405.076 330.5C405.521 331.19 406.625 330.546 406.18 329.856C402.669 324.383 397.564 319.998 391.599 317.376C390.863 317.054 390.204 318.143 390.955 318.48Z" fill="#944F2C"/>
<path d="M398.637 316.196C404.463 318.097 409.461 322.175 412.513 327.48C412.926 328.185 414.015 327.557 413.616 326.836C410.397 321.24 405.107 316.962 398.974 314.969C398.192 314.708 397.855 315.95 398.637 316.196Z" fill="#944F2C"/>
<path d="M399.066 335.299C404.156 332.678 409.262 330.041 414.352 327.419C415.088 327.051 414.444 325.947 413.708 326.315C408.618 328.937 403.512 331.574 398.422 334.196C397.686 334.564 398.33 335.667 399.066 335.299Z" fill="#944F2C"/>
<path d="M412.129 353.269L405.337 360.26C404.77 360.843 405.659 361.748 406.242 361.165C408.511 358.834 410.765 356.504 413.034 354.173C413.601 353.591 412.712 352.686 412.129 353.269Z" fill="#944F2C"/>
<path d="M216.444 411.853C215.739 405.184 205.329 357.485 199.947 333.122C198.322 325.763 203.887 318.787 211.416 318.71L316.38 317.683C322.053 317.622 326.959 321.593 328.109 327.143L345.649 411.868H216.46L216.444 411.853Z" fill="#3A2F81"/>
<path d="M342.199 401.765H398.284V411.853H340.022L342.199 401.765Z" fill="#3A2F81"/>
<path d="M275.535 362.928C275.535 367.635 271.717 371.453 267.01 371.453C262.303 371.453 258.485 367.635 258.485 362.928C258.485 358.221 262.303 354.403 267.01 354.403C271.717 354.403 275.535 358.221 275.535 362.928Z" fill="#FCB415"/>
<path d="M314.923 322.896C316.518 322.328 318.266 322.911 319.523 323.969C320.918 325.15 321.838 326.775 322.727 328.354C323.126 329.075 324.23 328.431 323.831 327.71C322.819 325.916 321.761 324.061 320.09 322.788C318.557 321.608 316.472 320.979 314.586 321.654C313.819 321.93 314.157 323.156 314.923 322.88V322.896Z" fill="#F9F9FA"/>
<path d="M343.671 403.068C342.046 403.068 340.896 404.586 340.819 406.104C340.758 407.437 341.478 408.863 342.659 409.523C343.947 410.228 345.511 409.906 346.569 408.94C347.627 407.974 347.949 406.38 347.151 405.138C346.293 403.819 344.56 403.16 343.119 403.865C342.812 404.018 342.72 404.463 342.889 404.739C343.073 405.061 343.456 405.122 343.763 404.969C344.1 404.8 344.484 404.8 344.898 404.923C345.281 405.03 345.618 405.26 345.909 405.598C346.461 406.211 346.477 407.116 345.94 407.759C345.633 408.143 345.235 408.403 344.821 408.541C344.376 408.679 343.993 408.695 343.564 408.541C343.226 408.419 342.828 408.112 342.613 407.805C342.322 407.407 342.184 407.054 342.107 406.548C342.107 406.656 342.107 406.441 342.107 406.441C342.107 406.38 342.107 406.303 342.107 406.226C342.107 406.15 342.107 406.088 342.107 406.027C342.107 406.027 342.138 405.828 342.107 405.92C342.122 405.782 342.168 405.644 342.199 405.521C342.245 405.398 342.26 405.352 342.352 405.199C342.644 404.693 343.119 404.325 343.656 404.325C344.468 404.325 344.484 403.052 343.656 403.052L343.671 403.068Z" fill="#F9F9FA"/>
<path d="M350.187 404.417H390.097C390.909 404.417 390.925 403.145 390.097 403.145H350.187C349.375 403.145 349.359 404.417 350.187 404.417Z" fill="#F9F9FA"/>
<path d="M209.039 321.991C204.7 322.559 201.174 326.453 201.189 330.869C201.189 331.681 202.462 331.697 202.462 330.869C202.462 327.22 205.39 323.739 209.039 323.264C209.376 323.218 209.683 323.003 209.683 322.62C209.683 322.313 209.392 321.945 209.039 321.976V321.991Z" fill="#F9F9FA"/>
<path d="M342.368 421.712C320.979 415.61 303.194 401.013 283.339 391.001C261.306 379.886 236.852 374.489 212.519 370.349C203.213 368.77 193.6 367.359 184.4 369.506C165.741 373.86 152.954 392.458 150.163 411.424C147.373 430.39 152.724 449.586 159.424 467.54C176.366 512.862 202.446 554.749 235.64 589.952C236.116 590.458 236.622 590.979 237.281 591.224C238.415 591.638 239.657 591.117 240.761 590.611C264.894 579.357 290.315 570.879 316.364 565.42C302.351 535.707 290.622 504.935 281.284 473.443C303.731 458.555 324.705 441.46 343.809 422.478L342.337 421.743L342.368 421.712Z" fill="#FCB415"/>
<path d="M225.429 398.759C230.903 406.027 236.208 413.417 241.344 420.93C246.496 428.473 251.479 436.124 256.293 443.882C261.092 451.609 265.707 459.444 270.138 467.386C274.584 475.328 278.847 483.362 282.925 491.488C287.003 499.615 290.898 507.833 294.608 516.143C295.068 517.185 295.528 518.228 295.988 519.255C296.264 519.884 297.184 520.037 297.736 519.715C298.38 519.332 298.472 518.611 298.196 517.967C294.531 509.642 290.683 501.393 286.651 493.252C282.603 485.064 278.371 476.969 273.956 468.981C269.555 461.023 264.986 453.158 260.233 445.4C255.48 437.642 250.559 429.991 245.468 422.463C240.378 414.935 235.119 407.499 229.692 400.201C229.017 399.296 228.327 398.376 227.652 397.471C227.238 396.92 226.548 396.644 225.904 397.012C225.368 397.334 225.031 398.207 225.444 398.759H225.429Z" fill="#F9F9FA"/>
<path d="M238.845 401.274C241.206 409.446 243.567 417.603 245.944 425.775C246.403 427.339 248.857 426.679 248.397 425.1C246.036 416.928 243.674 408.771 241.298 400.599C240.838 399.035 238.385 399.695 238.845 401.274Z" fill="#F9F9FA"/>
<path d="M247.308 426.771C257.933 424.38 268.605 422.248 279.337 420.378C289.947 418.538 300.618 416.943 311.305 415.625C317.361 414.874 323.432 414.214 329.504 413.647C330.194 413.586 330.777 413.11 330.777 412.375C330.777 411.731 330.194 411.041 329.504 411.102C318.587 412.145 307.686 413.448 296.846 415.012C286.068 416.576 275.335 418.4 264.649 420.501C258.623 421.681 252.613 422.954 246.634 424.303C245.959 424.456 245.576 425.223 245.744 425.867C245.928 426.557 246.634 426.909 247.308 426.756V426.771Z" fill="#F9F9FA"/>
<path d="M162.567 481.553C169.267 493.436 176.167 505.211 183.25 516.863C190.303 528.454 197.54 539.938 204.976 551.299C209.162 557.693 213.393 564.04 217.702 570.357C218.085 570.924 218.821 571.185 219.45 570.817C220.017 570.495 220.293 569.652 219.91 569.069C212.228 557.8 204.746 546.393 197.448 534.879C190.18 523.41 183.112 511.834 176.228 500.136C172.349 493.558 168.547 486.935 164.79 480.281C163.978 478.855 161.785 480.143 162.598 481.569L162.567 481.553Z" fill="#F9F9FA"/>
<path d="M287.754 645.807C293.581 651.189 299.637 656.34 305.908 661.216C301.339 669.955 292.185 676.119 282.358 677.039C281.453 677.131 280.456 677.146 279.72 676.609C278.678 675.843 278.616 674.34 278.678 673.052C279.23 663.132 287.739 645.792 287.739 645.792L287.754 645.807Z" fill="#5C4CA0"/>
<path d="M105.378 693.95C105.317 701.892 105.577 709.834 106.175 717.746C96.6387 720.245 85.9216 717.608 78.6234 710.969C77.9488 710.355 77.2589 709.635 77.1669 708.73C77.0289 707.442 78.1021 706.384 79.0987 705.572C86.8108 699.316 105.363 693.95 105.363 693.95H105.378Z" fill="#5C4CA0"/>
<path d="M306.122 614.652C305.754 615.879 306.015 617.258 306.736 618.316C307.487 619.42 308.606 620.172 309.956 620.325C310.293 620.356 310.599 620.003 310.599 619.681C310.599 619.313 310.308 619.083 309.956 619.037C309.818 619.006 309.741 619.006 309.68 618.991C309.557 618.96 309.434 618.93 309.312 618.884C309.174 618.822 309.112 618.792 309.066 618.776C308.959 618.715 308.852 618.654 308.744 618.592C308.407 618.362 308.024 617.979 307.794 617.626C307.502 617.182 307.364 616.86 307.257 616.323C307.257 616.308 307.226 616.139 307.242 616.185C307.242 616.247 307.242 616.078 307.242 616.047C307.242 615.925 307.242 615.802 307.242 615.664C307.242 615.603 307.242 615.541 307.242 615.48C307.272 615.265 307.303 615.127 307.349 615.005C307.594 614.223 306.352 613.885 306.122 614.667V614.652Z" fill="#944F2C"/>
<path d="M141.117 682.221C138.388 683.631 137.315 687.326 138.772 690.01C139.155 690.73 140.259 690.086 139.876 689.366C138.741 687.265 139.676 684.413 141.777 683.325C142.497 682.941 141.853 681.853 141.133 682.221H141.117Z" fill="#944F2C"/>
<path d="M231.777 582.194C240.669 577.195 249.593 572.212 258.792 567.766C267.869 563.381 277.236 559.533 286.957 556.865C292.385 555.378 297.92 554.259 303.501 553.63C304.19 553.553 304.773 553.093 304.773 552.357C304.773 551.729 304.19 551.008 303.501 551.085C293.274 552.219 283.308 554.887 273.695 558.536C264.066 562.185 254.79 566.739 245.714 571.584C240.593 574.313 235.533 577.149 230.473 580.001C229.047 580.799 230.32 583.006 231.761 582.194H231.777Z" fill="#F9F9FA"/>
<path d="M340.589 416.3C348.485 421.114 356.059 426.449 363.22 432.291C365.243 433.947 367.237 435.633 369.199 437.366C369.72 437.826 370.487 437.872 370.993 437.366C371.453 436.906 371.514 436.017 370.993 435.572C363.925 429.332 356.427 423.582 348.577 418.369C346.369 416.897 344.131 415.487 341.877 414.107C340.467 413.248 339.194 415.456 340.589 416.3Z" fill="#F9F9FA"/>
<path d="M348.194 418.247C355.615 420.47 362.744 423.552 369.46 427.431C370.886 428.259 372.158 426.051 370.748 425.238C363.863 421.252 356.504 418.078 348.884 415.794C347.305 415.318 346.645 417.787 348.209 418.247H348.194Z" fill="#F9F9FA"/>
<path d="M110.1 614.575C120.02 617.78 130.094 620.555 140.259 622.885C150.424 625.216 160.697 627.086 171.031 628.512C176.918 629.325 182.821 629.984 188.724 630.505C189.414 630.567 189.996 629.877 189.996 629.233C189.996 628.497 189.414 628.021 188.724 627.96C178.421 627.056 168.148 625.691 157.952 623.882C147.726 622.057 137.56 619.803 127.533 617.09C121.906 615.572 116.325 613.916 110.79 612.122C110.131 611.907 109.395 612.367 109.227 613.011C109.043 613.701 109.456 614.361 110.116 614.575H110.1Z" fill="#F9F9FA"/>
<path d="M349.19 289.855C345.802 297.337 343.932 305.34 342.368 313.359C340.773 321.5 338.673 330.025 341.218 338.197C342.506 342.337 344.698 346.155 347.259 349.635C347.673 350.187 348.363 350.463 349.007 350.095C349.558 349.773 349.865 348.914 349.466 348.347C347.289 345.388 345.342 342.199 344.1 338.718C342.766 335.023 342.368 331.206 342.659 327.296C342.95 323.248 343.824 319.262 344.591 315.276C345.342 311.381 346.139 307.502 347.121 303.669C348.225 299.391 349.574 295.16 351.398 291.127C351.674 290.499 351.582 289.763 350.938 289.38C350.386 289.058 349.482 289.211 349.19 289.84V289.855Z" fill="#4C4099"/>
<path d="M450.996 351.245C452.238 344.315 453.557 337.385 454.952 330.485C456.347 323.586 457.835 316.686 459.383 309.817C460.257 305.938 461.162 302.059 462.097 298.196C462.48 296.601 460.027 295.926 459.644 297.521C458.003 304.374 456.439 311.243 454.952 318.127C453.465 325.012 452.054 331.926 450.72 338.841C449.969 342.751 449.249 346.661 448.543 350.57C448.421 351.245 448.727 351.95 449.432 352.134C450.046 352.303 450.874 351.92 450.996 351.245Z" fill="#4C4099"/>
<path d="M462.051 305.616C459.444 308.851 457.206 312.347 455.427 316.104C455.136 316.717 455.259 317.483 455.887 317.851C456.439 318.173 457.328 318.02 457.635 317.392C459.322 313.85 461.407 310.477 463.86 307.426C464.289 306.889 464.381 306.153 463.86 305.632C463.415 305.187 462.495 305.095 462.066 305.632L462.051 305.616Z" fill="#4C4099"/>
<path d="M452.989 366.899C462.971 368.693 473.719 370.625 481.523 377.647C483.439 379.38 485.095 381.342 486.368 383.581C487.18 385.006 489.388 383.719 488.56 382.293C483.301 373.109 473.059 368.647 463.185 366.332C460.027 365.596 456.838 365.013 453.664 364.446C452.989 364.323 452.284 364.63 452.1 365.335C451.932 365.949 452.315 366.777 452.989 366.899Z" fill="#4C4099"/>
<path d="M368.693 349.957C372.802 350.095 376.819 351.322 380.315 353.483C381.71 354.342 382.998 352.149 381.603 351.291C377.724 348.899 373.247 347.565 368.693 347.412C367.053 347.351 367.053 349.911 368.693 349.957Z" fill="#4C4099"/>
<path d="M372.327 354.204H372.495C372.664 354.235 372.465 354.219 372.403 354.204C372.511 354.235 372.618 354.235 372.725 354.265C372.94 354.311 373.155 354.357 373.369 354.419C373.584 354.48 373.799 354.541 373.998 354.618C374.105 354.649 374.213 354.695 374.305 354.741C374.351 354.756 374.412 354.787 374.458 354.802C374.335 354.756 374.243 354.71 374.412 354.802C374.811 354.986 375.209 355.201 375.577 355.431C375.669 355.492 375.761 355.553 375.853 355.615C375.899 355.645 375.945 355.676 375.991 355.707C376.022 355.722 376.175 355.845 376.022 355.737C375.868 355.615 376.022 355.737 376.052 355.768C376.098 355.799 376.144 355.845 376.175 355.875C376.267 355.952 376.359 356.044 376.451 356.121C376.942 356.565 377.77 356.642 378.245 356.121C378.69 355.63 378.766 354.802 378.245 354.327C376.589 352.809 374.519 351.92 372.296 351.69C371.637 351.628 370.993 352.318 371.024 352.962C371.054 353.713 371.591 354.158 372.296 354.235L372.327 354.204Z" fill="#4C4099"/>
<path d="M441.644 288.858C436.492 295.298 429.455 300.143 421.589 302.611C419.351 303.316 417.051 303.838 414.72 304.16C414.046 304.252 413.662 305.126 413.831 305.724C414.03 306.46 414.72 306.705 415.395 306.613C423.935 305.432 432.046 301.599 438.485 295.88C440.279 294.286 441.95 292.538 443.453 290.652C443.882 290.115 443.974 289.379 443.453 288.858C443.008 288.414 442.088 288.322 441.659 288.858H441.644Z" fill="#4C4099"/>
<path d="M379.962 284.366C381.327 289.518 383.259 294.501 385.712 299.238C386.034 299.851 386.877 300.035 387.46 299.698C388.073 299.33 388.226 298.564 387.92 297.95C385.574 293.412 383.749 288.628 382.431 283.691C382.017 282.112 379.548 282.787 379.978 284.366H379.962Z" fill="#4C4099"/>
<path d="M401.626 273.189C401.289 278.172 401.81 283.201 403.114 288.015C403.773 290.422 404.632 292.768 405.674 295.053C406.195 296.203 406.763 297.322 407.391 298.426C407.928 299.376 408.495 300.434 409.477 301.002C410.504 301.584 411.73 301.492 412.834 301.247C413.877 301.017 414.889 300.68 415.87 300.266C417.802 299.453 419.565 298.318 421.175 296.969C424.379 294.286 426.863 290.852 429.117 287.371C432.398 282.312 435.557 277.175 438.761 272.07C439.206 271.38 438.102 270.736 437.657 271.426C434.805 275.949 431.969 280.456 429.117 284.979C427.001 288.337 424.778 291.68 421.972 294.485C420.592 295.865 419.074 297.107 417.373 298.088C415.671 299.07 413.662 299.959 411.7 300.143C410.488 300.25 409.691 299.79 409.063 298.778C408.434 297.797 407.897 296.739 407.376 295.681C406.318 293.535 405.429 291.312 404.739 289.027C403.175 283.906 402.546 278.54 402.899 273.204C402.96 272.392 401.688 272.392 401.626 273.204V273.189Z" fill="white"/>
<path d="M410.673 300.097C408.342 301.293 408.204 305.233 410.504 306.49C412.804 307.732 416.1 305.264 415.426 302.734C414.766 300.204 410.504 299.79 409.461 302.197L410.657 300.097H410.673Z" fill="white"/>
</svg>
